<svg width="102" height="30" viewBox="0 0 102 30" fill="none" xmlns="http://www.w3.org/2000/svg">
<g clip-path="url(#clip0_13_96)">
<path d="M50.5348 29.9989V29.9505C50.5858 29.8901 50.675 29.8539 50.7515 29.8659C51.1211 29.8539 51.4779 29.8539 51.8475 29.8659C51.924 29.8659 52.0132 29.8901 52.0642 29.9505V29.9989H50.5348Z" fill="#7D00FF"/>
<path d="M52.0642 29.9513C51.5544 29.9391 51.0446 29.9391 50.5348 29.9513C49.8338 29.9147 49.1328 29.8904 48.4318 29.8417C46.571 29.7077 44.723 29.4397 42.9132 29.0378C36.6552 27.6492 31.1621 24.8599 26.3699 20.8039C25.9238 20.4263 25.5032 20.0365 25.0698 19.6468C24.9679 19.5615 24.8787 19.4397 24.8277 19.3179C24.7512 19.1474 24.7895 18.9647 24.9169 18.8307C25.0444 18.6967 25.2483 18.648 25.4267 18.7211C25.5414 18.7698 25.6561 18.8185 25.7581 18.8794C30.3336 21.5834 35.3297 23.5566 40.568 24.726C42.3269 25.1157 44.0985 25.4202 45.8828 25.6395C48.4446 25.944 51.0319 26.0536 53.6064 25.9683C54.9956 25.9318 56.3721 25.81 57.7486 25.6395C60.9604 25.2497 64.1339 24.5554 67.2055 23.581C68.8242 23.0694 70.4046 22.4848 71.9468 21.8027C72.1762 21.6809 72.4566 21.6443 72.7115 21.7052C73.1321 21.8027 73.387 22.2168 73.285 22.6188C73.2723 22.6675 73.2468 22.7284 73.2213 22.7771C73.1193 22.9598 72.9791 23.1182 72.8007 23.24C71.335 24.3362 69.7546 25.2984 68.085 26.1023C64.9369 27.6249 61.5721 28.7089 58.1054 29.3301C56.1044 29.6711 54.0907 29.8782 52.0642 29.9513Z" fill="#7D00FF"/>
<path d="M33.1886 5.26186C33.5073 5.07916 33.8386 4.88427 34.1828 4.71375C35.0749 4.27526 36.069 4.05601 37.0759 4.10473C37.8024 4.14127 38.4651 4.33616 38.975 4.84773C39.4593 5.32276 39.6377 5.90741 39.6887 6.54079C39.7014 6.67477 39.7014 6.80875 39.7014 6.95492V13.2643C39.7014 13.8124 39.625 13.8855 39.0514 13.8855H37.4965C37.3945 13.8855 37.2926 13.8855 37.1906 13.8733C37.0377 13.8611 36.9102 13.7393 36.8847 13.5932C36.8592 13.4592 36.8592 13.3252 36.8592 13.1912V7.55175C36.872 7.32033 36.8465 7.10108 36.7828 6.88184C36.6808 6.50425 36.3239 6.23628 35.9161 6.21192C35.1641 6.1632 34.4122 6.30936 33.7239 6.61387C33.622 6.63823 33.5582 6.73567 33.571 6.83311V13.2399C33.571 13.3617 33.571 13.4714 33.5455 13.5932C33.5455 13.7637 33.4053 13.8855 33.2269 13.8855C33.0357 13.8977 32.8445 13.8977 32.6406 13.8977H31.2896C30.818 13.8977 30.7161 13.788 30.7161 13.3374V7.57611C30.7161 7.36905 30.7033 7.1498 30.6523 6.94274C30.5631 6.52861 30.1935 6.23628 29.7602 6.21192C28.9954 6.1632 28.218 6.30936 27.5297 6.62605C27.4278 6.65041 27.3641 6.76003 27.3895 6.85747V13.3496C27.3895 13.8002 27.2876 13.8977 26.816 13.8977H25.1082C24.6621 13.8977 24.5474 13.7759 24.5474 13.3617V4.90863C24.5474 4.81119 24.5601 4.71375 24.5856 4.61631C24.6366 4.47014 24.7895 4.38488 24.9425 4.38488H26.5356C26.765 4.38488 26.9052 4.51886 26.9817 4.72593C27.0454 4.89645 27.0837 5.05479 27.1474 5.2375C27.2748 5.2375 27.3513 5.15224 27.4405 5.10352C28.1415 4.68939 28.8807 4.33616 29.7092 4.19C30.3464 4.06819 30.9837 4.06819 31.621 4.19C32.22 4.3118 32.7553 4.65285 33.0994 5.14006C33.1249 5.1766 33.1504 5.20096 33.1759 5.22532C33.1631 5.2375 33.1759 5.2375 33.1886 5.26186Z" fill="#7D00FF"/>
<path d="M59.6094 11.3277C59.6858 11.084 59.7623 10.8526 59.8388 10.609C60.4251 8.72108 61.0113 6.84532 61.5976 4.95738L61.6741 4.73813C61.7378 4.51889 61.9545 4.3849 62.1839 4.3849H64.1212C64.6055 4.3849 64.7074 4.51889 64.5418 4.95738L63.7771 6.89404C62.9231 9.0134 62.0692 11.145 61.2153 13.2643C61.1898 13.3374 61.1515 13.4105 61.1261 13.4836C61.0368 13.7393 60.7692 13.9099 60.4888 13.8855C59.928 13.8733 59.3672 13.8733 58.8064 13.8855C58.4113 13.8977 58.1819 13.7272 58.0417 13.3861C57.7231 12.5822 57.3917 11.7661 57.0731 10.9622C56.3084 9.04994 55.5309 7.13764 54.7662 5.21316C54.6897 5.067 54.6388 4.89647 54.6005 4.73813C54.5623 4.49453 54.6515 4.37272 54.9064 4.37272C55.6329 4.36054 56.3594 4.37272 57.0731 4.37272C57.379 4.37272 57.5192 4.56761 57.5956 4.82339C57.7358 5.28624 57.876 5.76127 58.029 6.22412C58.5515 7.91718 59.0613 9.62242 59.5839 11.3155C59.5711 11.3277 59.5839 11.3277 59.6094 11.3277Z" fill="#7D00FF"/>
<path d="M14.3511 5.72473C14.4403 5.70037 14.5168 5.65165 14.5678 5.57856C14.7972 5.35932 15.0393 5.15226 15.2943 4.95737C15.957 4.47016 16.7854 4.22655 17.6139 4.28746C17.9453 4.29964 18.06 4.39708 18.0855 4.70159C18.1109 5.11571 18.0982 5.54202 18.0982 5.95615C18.1109 6.12668 18.0982 6.28502 18.0727 6.45554C18.0217 6.67479 17.9325 6.76005 17.7031 6.78441C17.5247 6.79659 17.359 6.78441 17.1805 6.77223C16.3266 6.69915 15.4982 6.85749 14.6952 7.11328C14.5168 7.17418 14.5168 7.29598 14.5168 7.42997V13.2765C14.5168 13.3861 14.5168 13.4836 14.5041 13.5932C14.4913 13.7515 14.3639 13.8733 14.1982 13.8733C14.1089 13.8855 14.007 13.8855 13.9178 13.8855H12.2609C12.1717 13.8855 12.0697 13.8855 11.9805 13.8733C11.8148 13.8611 11.6874 13.7272 11.6746 13.5688C11.6619 13.4714 11.6619 13.3739 11.6619 13.2765V4.99391C11.6619 4.43362 11.7256 4.37272 12.3119 4.37272H13.5354C13.8668 4.37272 14.0197 4.48234 14.1089 4.78685C14.1982 5.09135 14.2746 5.39586 14.3511 5.72473Z" fill="#7D00FF"/>
<path d="M73.9733 18.0755C74.8145 18.0999 75.6429 18.1486 76.4586 18.3556C76.688 18.4165 76.9047 18.4896 77.1214 18.5871C77.4145 18.6967 77.6057 18.9647 77.6439 19.257C77.6949 19.598 77.7077 19.9513 77.6822 20.3045C77.5165 22.3873 76.841 24.3971 75.7194 26.1876C75.3115 26.8331 74.8145 27.4178 74.241 27.9293C74.1262 28.039 73.986 28.1242 73.8331 28.1729C73.5909 28.2338 73.438 28.112 73.4253 27.8806C73.438 27.7588 73.4635 27.637 73.5145 27.5152C73.9606 26.3703 74.3939 25.2375 74.738 24.056C74.9419 23.4105 75.0821 22.7527 75.1714 22.0828C75.1968 21.8392 75.2096 21.5956 75.1841 21.352C75.1714 20.9379 74.891 20.5846 74.4704 20.4628C74.0753 20.341 73.6674 20.2679 73.2468 20.2436C72.0743 20.1949 70.9017 20.2436 69.7419 20.3898L68.1997 20.5725C68.034 20.5846 67.8811 20.5725 67.7919 20.4263C67.7027 20.2801 67.7409 20.134 67.8301 19.9878C67.9321 19.8538 68.0595 19.732 68.2125 19.6468C69.1556 19.0012 70.2135 18.6114 71.335 18.3556C72.2017 18.1851 73.0811 18.0999 73.9733 18.0755Z" fill="#7D00FF"/>
<path d="M68.633 9.13519V13.5201C68.6075 13.7637 68.4928 13.8733 68.2379 13.8855C67.5497 13.8977 66.8742 13.8977 66.1859 13.8855C65.931 13.8855 65.8163 13.7637 65.7908 13.5323C65.7781 13.4592 65.7781 13.3739 65.7781 13.3008V4.8721C65.7908 4.49451 65.8928 4.38489 66.2879 4.38489H68.1232C68.5183 4.38489 68.633 4.49451 68.633 4.8721V9.13519Z" fill="#7D00FF"/>
<path d="M19.3217 9.11085V4.78685C19.3345 4.49452 19.4492 4.3849 19.755 4.37272C20.4178 4.36054 21.0805 4.36054 21.7433 4.37272C22.0364 4.37272 22.1257 4.45798 22.1511 4.73813C22.1639 4.84775 22.1639 4.94519 22.1639 5.05482V13.1669C22.1639 13.3009 22.1511 13.4348 22.1384 13.5688C22.1257 13.7272 21.9982 13.8368 21.8325 13.849C21.756 13.8611 21.6923 13.8612 21.6158 13.8612H19.8443C19.7805 13.8612 19.7296 13.8611 19.6658 13.849C19.4874 13.8368 19.3345 13.7028 19.3217 13.5323C19.309 13.4348 19.309 13.3374 19.309 13.24C19.3217 11.8879 19.3217 10.4994 19.3217 9.11085Z" fill="#7D00FF"/>
<path d="M20.8002 0.0120983C21.0041 -7.62008e-05 21.208 0.0364472 21.3992 0.0973196C22.0874 0.31646 22.4443 0.88866 22.3806 1.6313C22.3296 2.26438 21.8325 2.7757 21.1698 2.8731C20.8894 2.9218 20.5962 2.9218 20.3158 2.8731C19.5894 2.73918 19.0541 2.22785 19.105 1.35129C19.1815 0.486903 19.7805 0.0120983 20.8002 0.0120983Z" fill="#7D00FF"/>
<path d="M67.2183 0.0121254C67.4732 -0.0122236 67.7281 0.0364743 67.9702 0.13387C68.4673 0.316487 68.8114 0.754769 68.8369 1.2661C68.9388 2.37397 68.1614 2.934 67.129 2.90965C66.9888 2.90965 66.8486 2.8853 66.7084 2.86095C65.9182 2.67834 65.5104 2.09396 65.5869 1.25392C65.6506 0.584326 66.1986 0.0851722 66.9506 0.0242998C67.0398 0.0121254 67.129 -4.91273e-05 67.2183 0.0121254Z" fill="#7D00FF"/>
<path d="M9.77558 8.11207C9.7246 7.4787 9.54617 6.85751 9.27852 6.28503C8.75597 5.23753 7.95302 4.47017 6.72948 4.20221C5.3275 3.90988 4.06573 4.20221 2.91866 5.01829C2.84218 5.09137 2.75297 5.15227 2.65101 5.20099C2.62552 5.18881 2.60002 5.17663 2.60002 5.16445C2.56179 5.04265 2.5363 4.92084 2.49806 4.79904C2.3961 4.49453 2.26865 4.38491 1.92453 4.38491C1.54217 4.38491 1.14707 4.39709 0.764713 4.38491C0.471573 4.37273 0.203924 4.40927 0 4.62852C0 8.89161 0 13.1669 0.0127452 17.4178C0.178433 17.6736 0.433337 17.7223 0.726478 17.7101C1.18531 17.6979 1.64413 17.7101 2.10296 17.7101C2.90591 17.7101 2.90591 17.7101 2.90591 16.9549V13.4836C2.90591 13.3983 2.86767 13.3009 2.95689 13.2278C3.59415 13.7028 4.37161 13.9951 5.17456 14.0682C6.29614 14.1778 7.31576 13.9099 8.16969 13.1791C8.7942 12.631 9.25303 11.9245 9.49519 11.145C9.83931 10.1462 9.8648 9.13522 9.77558 8.11207ZM6.72948 10.6334C6.64026 11.011 6.43634 11.352 6.1432 11.6078C5.81182 11.8758 5.40397 12.0341 4.97064 12.0341C4.32063 12.0707 3.68337 11.9367 3.10983 11.6444C2.96964 11.5835 2.88042 11.4495 2.89317 11.3033V9.09868C2.89317 8.36786 2.90591 7.63704 2.89317 6.90623C2.88042 6.7357 2.98238 6.58954 3.14807 6.52864C3.84906 6.21195 4.57553 6.06579 5.34025 6.21195C5.87555 6.28503 6.33437 6.6139 6.55104 7.08893C6.74222 7.4787 6.85693 7.90501 6.88242 8.33132C6.95889 9.11086 6.95889 9.89039 6.72948 10.6334Z" fill="#7D00FF"/>
<path d="M101.987 8.38004V8.42876C101.936 8.38004 101.911 8.30696 101.936 8.24606V8.14862C101.936 8.14862 101.936 8.13644 101.949 8.13644H101.936V8.01463H101.962C101.962 8.00245 101.949 8.00245 101.949 7.99027C101.923 7.75885 101.872 7.52742 101.809 7.30818C101.337 5.70038 100.279 4.6407 98.5587 4.22657C97.7558 4.04387 96.9401 4.01951 96.1244 4.14131C94.4038 4.38491 93.1675 5.26189 92.5685 6.82097C91.9822 8.30696 91.995 9.93912 92.5813 11.4251C93.0911 12.7771 94.1107 13.6297 95.5764 13.983C96.3538 14.1657 97.1695 14.2144 97.9725 14.1048C100.649 13.8003 101.758 11.8636 101.936 10.1827H101.923V10.0122C101.911 9.93912 101.898 9.87821 101.974 9.82949V9.85386C101.974 9.84167 101.987 9.81731 102 9.80513V8.4044C102 8.39222 101.987 8.39222 101.987 8.38004ZM98.9284 10.6943C98.8519 10.9501 98.7372 11.1815 98.5715 11.4007C98.2911 11.7783 97.845 12.0219 97.3607 12.0585C97.1185 12.0828 96.8764 12.0828 96.6342 12.0341C96.0989 11.9367 95.6528 11.5956 95.4362 11.1206C95.245 10.743 95.1303 10.3289 95.0921 9.91476C95.0283 9.19612 95.0156 8.47748 95.194 7.77103C95.2577 7.49088 95.3852 7.21074 95.5381 6.96713C95.8185 6.52864 96.3028 6.24849 96.8381 6.21195C97.0803 6.18759 97.3225 6.18759 97.5646 6.23631C98.0744 6.33376 98.495 6.65044 98.7244 7.10111C98.9411 7.52742 99.0685 8.00245 99.094 8.47748C99.1068 8.69673 99.1195 8.91597 99.1068 9.13522C99.145 9.67115 99.0813 10.1949 98.9284 10.6943Z" fill="#7D00FF"/>
<path d="M79.6449 0.0966797H77.8733C77.389 0.0966797 77.2998 0.181942 77.2998 0.644792V4.5912C77.2998 4.67646 77.338 4.76172 77.2743 4.84698C77.1596 4.8348 77.0958 4.76172 77.0066 4.713C75.6811 3.97 74.2919 3.83602 72.8899 4.45721C71.9085 4.8957 71.2968 5.68742 70.9017 6.6253C70.5193 7.52664 70.4301 8.4767 70.4556 9.43894C70.4556 10.3403 70.6722 11.2294 71.0928 12.0333C71.5771 12.9225 72.2781 13.6046 73.2978 13.8969C74.687 14.3111 75.987 14.104 77.1723 13.2635C77.2615 13.2148 77.3125 13.1296 77.4272 13.1052C77.4909 13.2392 77.5419 13.3854 77.5674 13.5315C77.6184 13.7264 77.7968 13.8604 78.0135 13.8604H78.3194C78.7782 13.8604 79.2243 13.8726 79.6704 13.8604C80.0272 13.8604 80.1292 13.7508 80.1419 13.3975V0.55953C80.1292 0.181942 80.0272 0.0966797 79.6449 0.0966797ZM77.3125 9.06136V11.2782C77.338 11.4243 77.2488 11.5583 77.1086 11.6192C76.4968 11.9481 75.7958 12.0821 75.1076 11.9846C74.5213 11.9237 74.0115 11.5827 73.7438 11.0833C73.5399 10.6935 73.4252 10.2794 73.387 9.85307C73.285 9.08572 73.3487 8.30618 73.5399 7.56318C73.6036 7.35612 73.6801 7.16123 73.7948 6.96635C74.0625 6.49132 74.5723 6.18681 75.1331 6.15027C75.8086 6.08937 76.4841 6.21117 77.0958 6.47914C77.2488 6.52786 77.338 6.67402 77.3253 6.83237C77.2998 7.58754 77.3125 8.31836 77.3125 9.06136Z" fill="#7D00FF"/>
<path d="M44.3534 9.90256C45.3093 10.0731 46.2907 10.0853 47.2466 9.93911C47.8074 9.86602 48.3427 9.70768 48.8398 9.45189C49.4133 9.13521 49.8339 8.69672 50.0123 8.0877C50.4584 6.55299 49.7702 5.0061 48.1005 4.43362C47.2848 4.17784 46.4182 4.09258 45.5642 4.2022C43.5505 4.42144 42.2377 5.48113 41.6387 7.32035C41.2181 8.57491 41.2691 9.85384 41.6132 11.1206C42.0593 12.7406 43.1809 13.7028 44.876 14.0439C45.8446 14.2509 46.826 14.2144 47.7946 14.0682C48.3045 13.983 48.8143 13.8612 49.2986 13.6784C49.5917 13.5688 49.7447 13.3983 49.7319 13.0816C49.7192 12.7893 49.7319 12.4848 49.7319 12.1803C49.7319 11.8149 49.579 11.7052 49.2094 11.7905C48.8398 11.8758 48.4829 11.9488 48.1133 12.0219C47.3231 12.1803 46.5074 12.1803 45.7172 12.0463C44.6338 11.8392 43.9328 10.9501 43.9966 9.85384C44.1113 9.86602 44.2387 9.8782 44.3534 9.90256ZM44.0348 8.03898C44.073 7.74666 44.1623 7.46651 44.277 7.19854C44.6593 6.30939 45.4623 6.00488 46.278 6.0536C46.5074 6.06578 46.7368 6.1145 46.9535 6.19976C47.2848 6.33375 47.5015 6.62607 47.5397 6.96712C47.578 7.17418 47.5652 7.39343 47.5015 7.60049C47.3486 8.03898 46.979 8.22169 46.5329 8.30695C46.2652 8.36785 45.9848 8.39221 45.7044 8.36785C45.2074 8.36785 44.6976 8.33131 44.2005 8.25823C44.0093 8.23387 44.0093 8.23387 44.0348 8.03898Z" fill="#7D00FF"/>
<path d="M87.343 10.0243C88.0822 9.9756 88.8215 9.84162 89.4842 9.50057C90.1597 9.18388 90.6313 8.58705 90.7715 7.88059C90.8607 7.4421 90.8607 6.97925 90.7587 6.54076C90.4911 5.44454 89.7646 4.76245 88.6685 4.40922C88.0567 4.22651 87.4067 4.15343 86.7695 4.17779C84.6283 4.22651 82.9969 5.26184 82.3341 7.30812C81.888 8.66013 81.9518 10.0365 82.3851 11.3885C82.8312 12.7771 83.8508 13.6175 85.3038 13.9951C85.9283 14.1413 86.5783 14.2022 87.2156 14.1778C88.146 14.1656 89.0764 13.9951 89.9558 13.6784C90.3254 13.5444 90.4146 13.4226 90.4146 13.045V12.168C90.4019 11.8148 90.2489 11.693 89.8793 11.7783C89.5989 11.8514 89.3313 11.9123 89.0509 11.9732C88.1969 12.168 87.3048 12.2046 86.4381 12.0584C85.5714 11.9001 84.9851 11.4251 84.7557 10.5968C84.692 10.3532 84.641 10.1096 84.6155 9.8538C84.6793 9.8538 84.743 9.8538 84.794 9.87816C85.6351 10.0243 86.4891 10.0852 87.343 10.0243ZM84.6793 8.07548C84.7685 7.60045 84.8832 7.1376 85.1891 6.74783C85.6606 6.151 86.3106 5.98047 87.0499 6.05355C87.1136 6.05355 87.1646 6.07791 87.2283 6.07791C88.1205 6.2119 88.3371 6.89399 88.1714 7.55173C88.044 8.03894 87.6234 8.22164 87.1518 8.3069C86.8969 8.35562 86.6293 8.37998 86.3616 8.3678C85.8391 8.35562 85.3293 8.31908 84.8195 8.246C84.7047 8.23382 84.6538 8.1851 84.6793 8.07548Z" fill="#7D00FF"/>
</g>
<defs>
<clipPath id="clip0_13_96">
<rect width="102" height="30" fill="white"/>
</clipPath>
</defs>
</svg>
