<svg width="93" height="32" viewBox="0 0 93 32" fill="none" xmlns="http://www.w3.org/2000/svg">
<path d="M9.61917 22.9083C7.85333 22.9083 7.00457 21.5484 7.44782 19.9754C8.36291 16.715 14.2431 11.8835 18.2502 11.8835C21.1722 11.8835 20.9498 14.5025 19.2368 16.7365L18.2899 17.7864C14.8937 21.1247 11.7452 22.9083 9.61917 22.9083ZM23.9413 0.922363C18.8273 0.924353 13.1957 4.05821 9.65889 7.02616L9.9381 7.43157C15.4279 3.57681 23.0453 1.07036 25.1451 4.83004C26.254 6.81331 24.3718 10.8189 21.7211 13.9845C22.355 12.5865 21.9364 9.90221 18.2402 9.90221C12.096 9.90221 0 18.0553 0 26.3994C0 29.7418 2.31473 31.9224 6.12761 31.9224C16.3334 31.9224 30.1742 15.165 30.1742 6.74846C30.1742 3.77534 28.4667 0.922363 23.9413 0.922363Z" fill="#7D00F7"/>
<path d="M37.0807 22.9083C36.4865 22.9083 35.992 22.7006 35.6826 22.3214C35.3601 21.924 35.264 21.3606 35.4169 20.779C35.7565 19.517 37.1144 18.5256 38.5109 18.5256H41.7955L40.6219 22.9083H37.0807ZM46.5207 9.7697C45.5814 8.61276 44.0606 8.09515 42.9724 8.09515H37.0036L35.9904 11.8803H41.6196L42.159 11.9372C42.1645 11.9372 42.6757 11.9969 42.9608 12.3812C43.1912 12.7026 43.225 13.1801 43.0593 13.8063L42.7932 14.8025H39.2465C36.1938 14.8025 31.9381 16.9962 30.9892 20.5395C30.5174 22.3063 30.9308 23.8368 31.8475 24.9616C32.757 26.0779 34.4736 26.6942 36.328 26.6942H39.6127H39.6107H43.7854L45.7435 19.3694L47.1848 13.9853C47.7508 11.8684 47.1375 10.5236 46.5207 9.7697Z" fill="#7D00F7"/>
<path d="M87.5217 8.09515C85.9068 8.09515 84.4063 8.57377 83.1862 9.47967C81.9541 10.3935 81.2745 11.4916 80.8694 13.0062C79.9905 16.2889 82.5658 17.8731 84.635 18.9962C86.1193 19.8015 87.403 20.4961 87.1249 21.5249C86.9287 22.2634 86.6066 22.9095 84.7808 22.9095H79.2073L78.196 26.6942H84.3654C86.0196 26.6942 87.5463 26.3493 88.7764 25.4032C90.0076 24.4539 90.7035 23.1315 91.1336 21.5174C91.5467 19.9813 91.2683 18.514 90.2813 17.4191C89.4587 16.4997 88.2755 15.8612 87.233 15.297C85.8969 14.5769 84.637 13.8974 84.8571 13.0738C84.9917 12.5753 85.4854 11.8803 86.5645 11.8803H91.9864L92.9999 8.09515H87.5217Z" fill="#7D00F7"/>
<path d="M55.176 8.09515C53.5615 8.09515 52.0614 8.57377 50.8409 9.47967C49.6088 10.3935 48.9293 11.4916 48.5202 13.0062C47.6432 16.2889 50.2205 17.8731 52.2894 18.9962C53.7744 19.8015 55.0549 20.4961 54.7796 21.5249C54.5815 22.2634 54.2609 22.9095 52.4351 22.9095H46.8624L45.8492 26.6942H52.0181C53.6743 26.6942 55.2007 26.3493 56.4307 25.4032C57.6639 24.4539 58.3582 23.1315 58.7883 21.5174C59.1998 19.9813 58.921 18.514 57.938 17.4191C57.1154 16.4997 55.9303 15.8612 54.8857 15.297C53.5516 14.5769 52.2933 13.8974 52.5138 13.0738C52.646 12.5753 53.1417 11.8803 54.2188 11.8803H59.6375L60.6527 8.09515H55.176Z" fill="#7D00F7"/>
<path d="M63.5935 8.09515L58.7547 26.6942H62.8428L67.6776 8.09515H63.5935Z" fill="#7D00F7"/>
<path d="M78.5536 8.09515C71.3564 8.12101 67.59 12.9223 66.3945 17.3949C64.9782 22.6982 67.7966 26.6946 72.9507 26.6946H76.4045L77.4157 22.9099H73.9631C72.034 22.9099 69.3813 21.3893 70.4505 17.3949C71.2996 14.22 74.3901 11.8807 77.7799 11.8807H79.9731L80.9863 8.09555H78.5536V8.09515Z" fill="#7D00F7"/>
</svg>
