<svg width="142" height="39" viewBox="0 0 142 39" fill="none" xmlns="http://www.w3.org/2000/svg">
<path fill-rule="evenodd" clip-rule="evenodd" d="M58.2494 25.931C57.7386 26.0533 57.5583 26.1131 57.2732 26.2553C55.9427 26.9198 55.489 28.5383 56.2359 29.9556C56.3672 30.2052 56.7112 30.6962 56.7545 30.6962C56.9079 30.6962 56.7592 30.8988 56.5316 30.9998C56.2668 31.1168 55.2834 31.925 55.178 32.1116C55.1482 32.1643 55.1084 32.2208 55.0892 32.2372C54.4772 32.7605 54.3306 34.5177 54.8169 35.4962C55.1265 36.1188 55.2018 36.2215 55.5813 36.5394C56.2231 37.077 56.3988 37.1534 57.4212 37.3397C58.6602 37.5652 60.2719 37.1068 61.0781 36.2994C61.1654 36.2119 61.2027 36.2414 61.536 36.6649C61.7355 36.9184 61.9233 37.1232 61.9528 37.12C61.9823 37.1168 62.5925 37.11 63.3082 37.1051C64.0242 37.1004 64.61 37.0763 64.61 37.0517C64.61 37.0073 64.468 36.8309 64.1208 36.4444C64.0185 36.3303 63.8712 36.1436 63.7935 36.0295C63.7157 35.9157 63.5397 35.702 63.4026 35.5556C63.2652 35.4087 63.076 35.1822 62.9823 35.0517C62.8886 34.9216 62.7771 34.7936 62.7349 34.7673C62.6234 34.699 62.6365 34.6443 62.835 34.3499C62.9326 34.2052 63.0125 34.0633 63.0125 34.0348C63.0125 34.0064 63.0771 33.888 63.1559 33.7714C63.4449 33.3458 63.7235 32.4992 63.8286 31.7291C63.9007 31.2 63.9596 31.2295 62.83 31.2295H61.8293V31.3966C61.8293 31.7632 61.4267 32.9483 61.3021 32.9483C61.2641 32.9483 60.6549 32.2183 60.2726 31.7148C60.1814 31.5947 60.055 31.4361 59.9918 31.3625C59.8338 31.179 59.8448 31.1396 60.0855 31.0254C61.3539 30.4228 61.9762 28.6112 61.356 27.3284C60.8754 26.3346 59.378 25.6612 58.2494 25.931ZM59.2729 27.7692C59.8217 28.1287 59.7365 28.9835 59.1014 29.4923C58.7138 29.8023 58.7163 29.8023 58.4731 29.526C58.1529 29.162 57.903 28.6059 57.9491 28.3595C58.0602 27.7664 58.7795 27.4457 59.2729 27.7692ZM58.7159 33.1556C58.8892 33.3838 59.1412 33.6903 59.2761 33.8372C59.4114 33.9836 59.5218 34.1248 59.5218 34.1508C59.5218 34.2052 59.6144 34.326 59.8026 34.5159C60.0212 34.7371 59.7667 35.0194 59.0709 35.3276C57.2345 36.1415 55.9082 33.8347 57.5394 32.6645C57.5721 32.6411 57.69 32.5465 57.8014 32.454L58.0045 32.2862L58.2026 32.5134C58.3116 32.6386 58.5427 32.9273 58.7159 33.1556Z" fill="#7D00FF"/>
<path fill-rule="evenodd" clip-rule="evenodd" d="M62.4207 0.920533C62.4207 1.10436 62.4487 1.19964 62.5094 1.22311C62.5698 1.24622 62.5982 1.3408 62.5982 1.51751V1.77778H63.1307H63.6632V1.53884C63.6632 1.38133 63.6934 1.28853 63.7519 1.26578C63.8141 1.24196 63.8407 1.14489 63.8407 0.941867V0.651733H63.1307H62.4207V0.920533ZM75.5951 0.6912C75.5156 0.7712 75.5543 1.18827 75.6444 1.22311C75.7048 1.24622 75.7332 1.3408 75.7332 1.51751V1.77778H76.2657H76.7982V1.53884C76.7982 1.38133 76.8284 1.28853 76.8869 1.26578C76.9491 1.24196 76.9757 1.14489 76.9757 0.941867V0.651733H76.3051C75.9366 0.651733 75.6171 0.669511 75.5951 0.6912ZM63.6043 1.27396V1.65938H63.1605H62.7168V1.27396V0.888889H63.1605H63.6043V1.27396ZM76.7393 1.27396V1.65938H76.2955H75.8518V1.27396V0.888889H76.2955H76.7393V1.27396ZM69.2694 3.45884C68.8203 3.62631 68.5061 3.94738 68.3176 4.43093C68.1153 4.95111 68.023 4.9184 69.6982 4.9184H71.1775V4.73778C71.1775 3.95164 70.0234 3.17796 69.2694 3.45884ZM69.5207 3.904C69.5207 4.24604 69.3766 4.33884 69.1934 4.11449C69.0155 3.89653 69.0134 3.8272 69.1806 3.74649C69.444 3.6192 69.5207 3.65476 69.5207 3.904ZM70.1767 3.76569L70.3535 3.85707L70.2225 4.04693C70.1505 4.15147 70.0851 4.24569 70.0777 4.25671C70.0031 4.36018 69.8168 4.11164 69.8168 3.90898C69.8168 3.64302 69.8867 3.61529 70.1767 3.76569ZM69.0017 4.2816C69.2008 4.54507 69.1565 4.62222 68.8057 4.62222C68.4713 4.62222 68.4727 4.62471 68.6442 4.31929C68.8008 4.03982 68.8174 4.03804 69.0017 4.2816ZM70.8818 4.54578C70.8818 4.64924 70.3099 4.65138 70.2744 4.54827C70.2605 4.50738 70.3173 4.384 70.4007 4.27413L70.552 4.07396L70.7167 4.272C70.8076 4.38044 70.8818 4.50382 70.8818 4.54578ZM69.935 4.53333C69.9953 4.60622 69.9914 4.62222 69.9126 4.62222C69.8597 4.62222 69.8168 4.58204 69.8168 4.53333C69.8168 4.48427 69.8267 4.44444 69.8391 4.44444C69.8512 4.44444 69.8945 4.48427 69.935 4.53333ZM49.2151 7.01831L48.9964 7.08195L49.1895 7.44355C49.2953 7.64267 49.4405 7.87947 49.5115 7.96978L49.6407 8.1344V12.0078V15.8816H49.4025H49.1643L49.1806 16.7851L49.1969 17.6889L69.7156 17.6892L90.2342 17.69L90.2065 16.8004C90.1916 16.3115 90.1771 15.9044 90.1746 15.8962C90.1721 15.888 90.0635 15.8816 89.9332 15.8816H89.6968V12.0359V8.19058L89.9307 7.9072C90.1771 7.60853 90.4522 7.13529 90.405 7.09156C90.2474 6.94507 90.0038 6.99911 89.8622 7.21209C89.7802 7.33582 89.586 7.56373 89.4309 7.7184L89.1487 8H84.0668H78.985L79.1057 7.76284L79.2264 7.52604H79.0816C78.9875 7.52604 78.9229 7.56836 78.8984 7.64587C78.7997 7.95662 79.2889 7.94062 69.7234 7.94276L60.853 7.94453L60.6691 7.73511C60.3937 7.42115 60.2051 7.44853 60.3763 7.77778L60.4615 7.94062H55.2678H50.0742L50.012 7.80729C49.978 7.73404 49.8913 7.60747 49.8196 7.52604C49.7479 7.44462 49.6315 7.28249 49.5615 7.16622C49.4369 6.96 49.4281 6.95609 49.2151 7.01831ZM60.8963 12.1778L60.8807 16.1184H59.728H58.575V13.5111C58.575 11.8123 58.5956 10.9038 58.6343 10.9038C58.8345 10.9038 58.93 10.6649 58.93 10.1639V9.66116L59.2225 9.43787C59.3833 9.3152 59.5164 9.18151 59.5182 9.14062C59.5221 9.05422 53.9898 9.02969 53.9366 9.11609C53.9199 9.14311 54.0381 9.29529 54.1993 9.45458L54.4925 9.74364V10.2304C54.4925 10.7054 54.5635 10.9038 54.7335 10.9038C54.7662 10.9038 54.7882 11.9463 54.7882 13.5118V16.1198L52.4661 16.1045L50.1437 16.0889L50.1285 12.1628L50.1132 8.23716H55.5128H60.9119L60.8963 12.1778ZM62.0657 12.1778V16.1184H61.6518H61.2375V12.1778V8.23716H61.6518H62.0657V12.1778ZM66.3303 8.4864L66.5625 8.73564V12.2197C66.5625 14.4149 66.5415 15.7038 66.5053 15.7038C66.4698 15.7038 66.4421 14.6272 66.4315 12.8444L66.4144 9.98507L66.2682 9.68889C65.4932 8.12196 63.2415 8.19555 62.5925 9.80907C62.4509 10.1621 62.4502 10.1692 62.4193 13.126L62.388 16.0889L62.3749 12.1628L62.3618 8.23716H64.2301H66.0985L66.3303 8.4864ZM71.6152 8.45049L71.8282 8.66382L71.8168 12.1984C71.8104 14.1426 71.7973 15.5598 71.7881 15.3483C71.7785 15.1364 71.7636 13.8688 71.7551 12.5319L71.7394 10.1006L71.5325 9.68747C70.6858 7.99751 68.4273 8.21156 67.7855 10.0427C67.7468 10.1536 67.7091 11.2772 67.6875 12.9778L67.6527 15.7333L67.6403 12.2148L67.6275 8.69582L67.8199 8.47147L68.0119 8.24711L69.7071 8.24213L71.4022 8.23716L71.6152 8.45049ZM77.0811 12.1628L77.068 16.0889L77.0368 13.0667C77.0013 9.63058 77.0226 9.77991 76.4766 9.19538C75.4989 8.14862 73.8439 8.40747 73.207 9.70667L73.0412 10.0444L73.01 12.8889L72.9788 15.7333L72.9656 12.1977L72.9525 8.66204L73.1449 8.45689L73.3369 8.25209L75.2156 8.24462L77.0943 8.23716L77.0811 12.1628ZM78.2182 12.1778V16.1184H77.8337H77.4493V12.1778V8.23716H77.8337H78.2182V12.1778ZM89.1643 12.1778V16.1184H86.7975H84.4307V13.4816C84.4307 10.8996 84.4332 10.8444 84.5471 10.8444C84.7225 10.8444 84.7857 10.6631 84.7878 10.1522C84.7896 9.64942 84.8134 9.59715 85.1556 9.33867C85.2777 9.24658 85.3775 9.14773 85.3775 9.11893C85.3775 9.0592 79.8565 9.04569 79.7972 9.10507C79.7759 9.1264 79.8903 9.2736 80.0511 9.43218L80.3436 9.72053L80.361 10.2375C80.3773 10.7364 80.3837 10.757 80.5413 10.8327L80.7046 10.9109L80.689 13.4997L80.6737 16.0889L79.6236 16.1052L78.5732 16.1212V12.1792V8.23716H83.8687H89.1643V12.1778ZM67.3318 12.2073V15.7038H67.095H66.8582V12.2073V8.71111H67.095H67.3318V12.2073ZM72.5975 12.2073V15.7038H72.3905H72.1832V12.2073V8.71111H72.3905H72.5975V12.2073ZM65.1531 8.94507C66.1478 9.45707 66.1745 9.5648 66.1954 13.1406L66.2125 16.1184H64.4648H62.7168L62.7171 13.2295C62.7178 10.8562 62.7335 10.2894 62.8052 10.053C63.119 9.01724 64.2536 8.48178 65.1531 8.94507ZM70.2804 8.88533C70.7231 9.04747 71.0703 9.3536 71.2726 9.76L71.4437 10.1038L71.4604 13.1129L71.4775 16.1223L70.7802 16.1056L70.083 16.0889L70.066 15.5132L70.0489 14.9372L70.7167 14.9205L71.3844 14.9038L71.4001 12.874L71.4157 10.8444H70.6162H69.8168V13.4866C69.8168 15.5737 69.8011 16.1234 69.7426 16.1038C69.6854 16.0846 69.6652 15.4919 69.6535 13.4617L69.6378 10.8444H68.8693H68.1007V12.8889V14.9333H68.7539H69.4067L69.3897 15.5111L69.373 16.0889H68.6925H68.0119V13.126V10.1628L68.149 9.86667C68.5579 8.98062 69.4362 8.57635 70.2804 8.88533ZM75.6484 8.91129C76.0559 9.10151 76.3605 9.38204 76.5508 9.74293L76.7094 10.0444L76.7265 13.0816L76.7432 16.1184H75.0232H73.3032L73.3203 13.0816L73.3369 10.0444L73.5127 9.72693C73.9657 8.90773 74.8869 8.55609 75.6484 8.91129ZM63.8535 8.99876C63.3291 9.20071 62.8868 9.80089 62.8105 10.4149L62.7793 10.6667H64.4424H66.1056L66.0719 10.3378C65.9657 9.30738 64.8308 8.62222 63.8535 8.99876ZM69.2101 8.9568C68.7077 9.09831 68.1692 9.79804 68.1131 10.3815L68.0858 10.6667H69.7515H71.4175L71.3795 10.3851C71.2414 9.35787 70.2055 8.67591 69.2101 8.9568ZM74.484 8.97067C73.8954 9.18115 73.3668 9.91822 73.3668 10.528V10.6667H75.031H76.6953L76.6661 10.4053C76.5476 9.35395 75.4428 8.62755 74.484 8.97067ZM64.255 9.33049C64.255 9.62844 63.9028 9.80693 63.7051 9.60889C63.5336 9.43715 63.7093 9.28 64.2401 9.12995C64.2482 9.12782 64.255 9.21813 64.255 9.33049ZM65.0243 9.28035C65.353 9.45458 65.3576 9.46311 65.2099 9.62062L65.0736 9.76604L64.8123 9.6384C64.583 9.5264 64.5511 9.48764 64.5511 9.31733C64.5507 9.10542 64.676 9.09547 65.0243 9.28035ZM69.58 9.32729C69.58 9.50115 69.5487 9.54524 69.3496 9.64907L69.1192 9.76924L68.9815 9.6224C68.8256 9.456 68.8359 9.44178 69.2544 9.2416C69.5693 9.0912 69.58 9.09404 69.58 9.32729ZM74.905 9.32196C74.905 9.60996 74.4903 9.80373 74.2944 9.60711C74.1403 9.45316 74.2216 9.34329 74.5858 9.21351C74.9029 9.10044 74.905 9.10116 74.905 9.32196ZM75.818 9.39449C75.9302 9.47911 75.9299 9.48338 75.7978 9.62418L75.6633 9.76747L75.4055 9.63911C75.1609 9.51787 75.052 9.29493 75.1759 9.17049C75.2202 9.12604 75.67 9.28284 75.818 9.39449ZM70.3514 9.30489C70.6152 9.43964 70.6319 9.48089 70.4781 9.61991C70.3038 9.77778 69.8757 9.58898 69.8757 9.35396C69.8757 9.14524 70.0117 9.13138 70.3514 9.30489ZM58.7418 9.49618C58.7014 9.56978 58.6513 9.86951 58.6311 10.1628L58.5942 10.6962L58.5846 10.1483L58.575 9.6H56.7112C55.5081 9.6 54.8475 9.62098 54.8475 9.65938C54.8475 9.7728 54.758 9.71662 54.6579 9.54027L54.5571 9.36284H56.6864H58.8157L58.7418 9.49618ZM84.5958 9.49618C84.5539 9.56978 84.5042 9.85636 84.4854 10.1333L84.4513 10.6372L84.441 10.1184L84.4307 9.6H82.5669H80.7032L80.694 10.1184L80.6847 10.6372L80.6485 10.1234C80.6212 9.73973 80.5839 9.57867 80.5005 9.48622L80.389 9.36284H82.5304H84.6717L84.5958 9.49618ZM63.5201 10.1636C63.2968 10.646 62.9575 10.5216 63.1616 10.0324C63.3107 9.67538 63.3646 9.63591 63.5141 9.77671L63.643 9.89795L63.5201 10.1636ZM68.8267 10.1796C68.7344 10.3989 68.6996 10.4284 68.5299 10.4292C68.297 10.4299 68.2924 10.3808 68.4884 9.95947L68.6382 9.63698L68.7844 9.78382C68.931 9.93067 68.931 9.93067 68.8267 10.1796ZM74.1133 9.78453L74.2461 9.90933L74.1201 10.1696C74.0157 10.3847 73.9653 10.4295 73.8283 10.4295C73.6213 10.4295 73.611 10.3008 73.7874 9.92533C73.9309 9.6192 73.9355 9.61707 74.1133 9.78453ZM65.6732 9.8816C65.8677 10.2969 65.8589 10.4295 65.6374 10.4295C65.4961 10.4295 65.4251 10.3982 65.4027 10.326C65.385 10.2688 65.3445 10.1735 65.3122 10.1138C65.2554 10.0078 65.3132 9.87769 65.468 9.76391C65.5639 9.69316 65.5926 9.70987 65.6732 9.8816ZM71.0014 9.97049C71.1732 10.3488 71.1573 10.4295 70.9112 10.4295C70.7543 10.4295 70.7036 10.4046 70.7021 10.326C70.7011 10.2688 70.6631 10.1557 70.618 10.074C70.5466 9.94524 70.5481 9.91218 70.629 9.82222C70.7767 9.65831 70.8786 9.6992 71.0014 9.97049ZM76.2377 9.86027C76.4304 10.1554 76.4237 10.4295 76.2235 10.4295C75.9782 10.4295 75.7872 10.0014 75.9558 9.83004C76.0935 9.68995 76.1287 9.69387 76.2377 9.86027ZM65.0264 10.1511C65.1879 10.416 65.1794 10.4295 64.8468 10.4295H64.5507V10.102V9.77458L64.731 9.86809C64.8301 9.91929 64.9629 10.0466 65.0264 10.1511ZM70.2761 10.0277C70.3124 10.0715 70.3699 10.1799 70.4036 10.2684L70.4646 10.4295H70.1703H69.8757V10.102V9.77458L70.0429 9.86133C70.1349 9.90898 70.2396 9.98364 70.2761 10.0277ZM75.5557 10.0533C75.817 10.3513 75.7925 10.4295 75.4375 10.4295H75.1418V10.1092C75.1418 9.72658 75.2557 9.71129 75.5557 10.0533ZM58.3382 12.474V15.1111H56.7112H55.0843V12.474V9.83715H56.7112H58.3382V12.474ZM64.255 10.1333V10.4295H63.9887C63.66 10.4295 63.6447 10.3431 63.9216 10.0487C64.1922 9.76142 64.255 9.77742 64.255 10.1333ZM69.58 10.1333V10.4295H69.3137C68.9811 10.4295 68.9634 10.3243 69.2488 10.0384C69.5221 9.76462 69.58 9.78098 69.58 10.1333ZM74.905 10.1333V10.4295H74.6121H74.3196L74.3814 10.2514C74.447 10.0633 74.6884 9.83715 74.824 9.83715C74.8816 9.83715 74.905 9.92249 74.905 10.1333ZM84.1943 12.474V15.1111H82.5669H80.94V12.474V9.83715H82.5669H84.1943V12.474ZM81.0852 10.1483C81.0696 10.1892 81.0639 11.2757 81.0724 12.5632L81.088 14.9038H81.7682H82.4487L82.4644 12.4889L82.4796 10.074H81.7966C81.3042 10.074 81.1058 10.0949 81.0852 10.1483ZM82.7444 10.1074C82.7061 10.1241 82.6912 10.9746 82.7015 12.5333L82.7175 14.9333H83.3678H84.0178L84.0026 12.5184L83.9869 10.1038L83.3955 10.0924C83.07 10.0864 82.7771 10.0932 82.7444 10.1074ZM55.2295 10.2076C55.2138 10.2482 55.2082 11.3351 55.2167 12.6222L55.2319 14.9628L55.9274 14.9796L56.6225 14.9963V12.565V10.1333H55.9402C55.4485 10.1333 55.2501 10.154 55.2295 10.2076ZM56.8 12.5628V14.9963L57.4951 14.9796L58.1905 14.9628V12.5628V10.1628L57.4951 10.1461L56.8 10.1294V12.5628ZM56.3736 10.8295L56.391 11.2594H55.9448H55.4982V10.8121V10.3652L55.9274 10.3826L56.3562 10.4L56.3736 10.8295ZM57.9118 10.8295L57.9292 11.2594H57.483H57.0368V10.8121V10.3652L57.4656 10.3826L57.8944 10.4L57.9118 10.8295ZM82.2418 10.8149V11.2594H81.798H81.3543V10.8149V10.3705H81.798H82.2418V10.8149ZM83.78 10.8149V11.2594H83.3657H82.9518V10.8149V10.3705H83.3657H83.78V10.8149ZM62.7899 12.874L62.8055 14.9038H63.5744H64.3437L64.3594 12.874L64.375 10.8444H63.5744H62.7743L62.7899 12.874ZM64.5507 12.8889V14.9369L65.3349 14.9202L66.1187 14.9038V12.8889V10.874L65.3349 10.8576L64.5507 10.8409V12.8889ZM73.3806 12.874L73.3962 14.9038H74.1655H74.9344L74.9501 12.874L74.9657 10.8444H74.1655H73.365L73.3806 12.874ZM75.0963 12.874L75.1119 14.9038L75.8961 14.9202L76.68 14.9369V12.8907V10.8444H75.8805H75.0811L75.0963 12.874ZM63.4268 11.4372V11.7927H63.2493H63.0718V11.4372V11.0816H63.2493H63.4268V11.4372ZM64.0775 11.4372V11.7927H63.9H63.7225V11.4372V11.0816H63.9H64.0775V11.4372ZM65.1897 11.4517L65.2075 11.7927H64.9976H64.7875V11.4332V11.0741L64.9799 11.0926C65.1698 11.1108 65.1723 11.115 65.1897 11.4517ZM65.7932 11.4372V11.7927H65.6157C65.4417 11.7927 65.3335 11.2654 65.4776 11.1211C65.6519 10.9465 65.7932 11.088 65.7932 11.4372ZM68.7397 11.4517L68.7575 11.7927H68.5476H68.3375V11.4332V11.0741L68.5299 11.0926C68.7198 11.1108 68.7223 11.115 68.7397 11.4517ZM69.3908 11.4517L69.4085 11.7927H69.1984H68.9882V11.4766C68.9882 11.114 69.0155 11.0695 69.2229 11.0937C69.3617 11.1097 69.3741 11.1367 69.3908 11.4517ZM70.4675 11.4372V11.7927H70.2605H70.0532V11.4766C70.0532 11.1122 70.0724 11.0816 70.2999 11.0816C70.4654 11.0816 70.4675 11.0862 70.4675 11.4372ZM71.1182 11.4372V11.7927H70.9407H70.7632V11.4372V11.0816H70.9407H71.1182V11.4372ZM74.0175 11.4372V11.7927H73.8105H73.6032V11.4766C73.6032 11.1122 73.6224 11.0816 73.8499 11.0816C74.0154 11.0816 74.0175 11.0862 74.0175 11.4372ZM74.6682 11.4372V11.7927H74.4907H74.3132V11.4372V11.0816H74.4907H74.6682V11.4372ZM75.7332 11.4372V11.7927H75.5557H75.3782V11.4372V11.0816H75.5557H75.7332V11.4372ZM76.4315 11.4517L76.4492 11.7927H76.2391H76.0293V11.4332V11.0741L76.2213 11.0926C76.4116 11.1108 76.4141 11.115 76.4315 11.4517ZM56.3857 11.9406V12.3851H55.9419H55.4982V11.9406V11.4962H55.9419H56.3857V11.9406ZM57.9243 11.9406V12.3851H57.4805H57.0368V11.9406V11.4962H57.4805H57.9243V11.9406ZM82.2418 11.9406V12.3851H81.798H81.3543V11.9406V11.4962H81.798H82.2418V11.9406ZM83.78 11.9406V12.3851H83.3657H82.9518V11.9406V11.4962H83.3657H83.78V11.9406ZM63.4268 12.4149C63.4268 12.7374 63.425 12.7406 63.2493 12.7406C63.0735 12.7406 63.0718 12.7374 63.0718 12.4149C63.0718 12.0921 63.0735 12.0889 63.2493 12.0889C63.425 12.0889 63.4268 12.0921 63.4268 12.4149ZM64.0775 12.4149C64.0775 12.7374 64.0757 12.7406 63.9 12.7406C63.7243 12.7406 63.7225 12.7374 63.7225 12.4149C63.7225 12.0921 63.7243 12.0889 63.9 12.0889C64.0757 12.0889 64.0775 12.0921 64.0775 12.4149ZM65.2018 12.4149V12.7406H64.9944H64.7875V12.4149V12.0889H64.9944H65.2018V12.4149ZM65.7932 12.4149C65.7932 12.7374 65.7914 12.7406 65.6157 12.7406C65.44 12.7406 65.4382 12.7374 65.4382 12.4149C65.4382 12.0921 65.44 12.0889 65.6157 12.0889C65.7914 12.0889 65.7932 12.0921 65.7932 12.4149ZM68.7518 12.4149V12.7406H68.5444H68.3375V12.4149V12.0889H68.5444H68.7518V12.4149ZM69.4025 12.4149V12.7406H69.1955H68.9882V12.4149V12.0889H69.1955H69.4025V12.4149ZM70.4675 12.4149V12.7406H70.2605H70.0532V12.4149V12.0889H70.2605H70.4675V12.4149ZM71.1182 12.4149C71.1182 12.7374 71.1164 12.7406 70.9407 12.7406C70.765 12.7406 70.7632 12.7374 70.7632 12.4149C70.7632 12.0921 70.765 12.0889 70.9407 12.0889C71.1164 12.0889 71.1182 12.0921 71.1182 12.4149ZM74.0175 12.4149V12.7406H73.8105H73.6032V12.4149V12.0889H73.8105H74.0175V12.4149ZM74.6682 12.4149C74.6682 12.7374 74.6664 12.7406 74.4907 12.7406C74.315 12.7406 74.3132 12.7374 74.3132 12.4149C74.3132 12.0921 74.315 12.0889 74.4907 12.0889C74.6664 12.0889 74.6682 12.0921 74.6682 12.4149ZM75.7332 12.4149C75.7332 12.7374 75.7314 12.7406 75.5557 12.7406C75.38 12.7406 75.3782 12.7374 75.3782 12.4149C75.3782 12.0921 75.38 12.0889 75.5557 12.0889C75.7314 12.0889 75.7332 12.0921 75.7332 12.4149ZM76.4432 12.4149V12.7406H76.2362H76.0293V12.4149V12.0889H76.2362H76.4432V12.4149ZM56.3736 13.0816L56.391 13.5111H55.9448H55.4982V13.0642V12.6169L55.9274 12.6343L56.3562 12.6517L56.3736 13.0816ZM57.9118 13.0816L57.9292 13.5111H57.483H57.0368V13.0642V12.6169L57.4656 12.6343L57.8944 12.6517L57.9118 13.0816ZM82.2293 13.0517L82.2119 13.4816L81.7831 13.499L81.3543 13.5164V13.0692V12.6222H81.8005H82.2467L82.2293 13.0517ZM83.78 13.0667V13.5111H83.3657H82.9518V13.0667V12.6222H83.3657H83.78V13.0667ZM63.4268 13.3038C63.4268 13.5605 63.42 13.5705 63.2493 13.5705C63.0782 13.5705 63.0718 13.5605 63.0718 13.3038C63.0718 13.0468 63.0782 13.0372 63.2493 13.0372C63.42 13.0372 63.4268 13.0468 63.4268 13.3038ZM64.0775 13.3038C64.0775 13.5605 64.0707 13.5705 63.9 13.5705C63.7292 13.5705 63.7225 13.5605 63.7225 13.3038C63.7225 13.0468 63.7292 13.0372 63.9 13.0372C64.0707 13.0372 64.0775 13.0468 64.0775 13.3038ZM65.2018 13.3038C65.2018 13.5691 65.2007 13.5705 64.9944 13.5705C64.7885 13.5705 64.7875 13.5691 64.7875 13.3038C64.7875 13.0386 64.7885 13.0372 64.9944 13.0372C65.2007 13.0372 65.2018 13.0386 65.2018 13.3038ZM65.7932 13.3038C65.7932 13.5605 65.7868 13.5705 65.6157 13.5705C65.4449 13.5705 65.4382 13.5605 65.4382 13.3038C65.4382 13.0468 65.4449 13.0372 65.6157 13.0372C65.7868 13.0372 65.7932 13.0468 65.7932 13.3038ZM68.7518 13.3038C68.7518 13.5691 68.7507 13.5705 68.5444 13.5705C68.3385 13.5705 68.3375 13.5691 68.3375 13.3038C68.3375 13.0386 68.3385 13.0372 68.5444 13.0372C68.7507 13.0372 68.7518 13.0386 68.7518 13.3038ZM69.4025 13.3038C69.4025 13.5691 69.4014 13.5705 69.1955 13.5705C68.9893 13.5705 68.9882 13.5691 68.9882 13.3038C68.9882 13.0386 68.9893 13.0372 69.1955 13.0372C69.4014 13.0372 69.4025 13.0386 69.4025 13.3038ZM70.4675 13.3038C70.4675 13.5691 70.4664 13.5705 70.2605 13.5705C70.0543 13.5705 70.0532 13.5691 70.0532 13.3038C70.0532 13.0386 70.0543 13.0372 70.2605 13.0372C70.4664 13.0372 70.4675 13.0386 70.4675 13.3038ZM71.1182 13.3038C71.1182 13.5605 71.1118 13.5705 70.9407 13.5705C70.7699 13.5705 70.7632 13.5605 70.7632 13.3038C70.7632 13.0468 70.7699 13.0372 70.9407 13.0372C71.1118 13.0372 71.1182 13.0468 71.1182 13.3038ZM74.0175 13.3038C74.0175 13.5691 74.0164 13.5705 73.8105 13.5705C73.6043 13.5705 73.6032 13.5691 73.6032 13.3038C73.6032 13.0386 73.6043 13.0372 73.8105 13.0372C74.0164 13.0372 74.0175 13.0386 74.0175 13.3038ZM74.6682 13.3038C74.6682 13.5605 74.6618 13.5705 74.4907 13.5705C74.3199 13.5705 74.3132 13.5605 74.3132 13.3038C74.3132 13.0468 74.3199 13.0372 74.4907 13.0372C74.6618 13.0372 74.6682 13.0468 74.6682 13.3038ZM75.7332 13.3038C75.7332 13.5605 75.7268 13.5705 75.5557 13.5705C75.3849 13.5705 75.3782 13.5605 75.3782 13.3038C75.3782 13.0468 75.3849 13.0372 75.5557 13.0372C75.7268 13.0372 75.7332 13.0468 75.7332 13.3038ZM76.4432 13.3038C76.4432 13.5691 76.4421 13.5705 76.2362 13.5705C76.0303 13.5705 76.0293 13.5691 76.0293 13.3038C76.0293 13.0386 76.0303 13.0372 76.2362 13.0372C76.4421 13.0372 76.4432 13.0386 76.4432 13.3038ZM56.3857 14.2517V14.6962H55.9419H55.4982V14.2517V13.8073H55.9419H56.3857V14.2517ZM57.9243 14.2517V14.6962H57.4805H57.0368V14.2517V13.8073H57.4805H57.9243V14.2517ZM82.2418 14.2222V14.6372H81.798H81.3543V14.2222V13.8073H81.798H82.2418V14.2222ZM83.78 14.2517V14.6962H83.3657H82.9518V14.2517V13.8073H83.3657H83.78V14.2517ZM63.4268 14.2517V14.6372H63.2493H63.0718V14.2517V13.8667H63.2493H63.4268V14.2517ZM64.0775 14.2517V14.6372H63.9H63.7225V14.2517V13.8667H63.9H64.0775V14.2517ZM65.2018 14.2517V14.6372H64.9944H64.7875V14.2517V13.8667H64.9944H65.2018V14.2517ZM65.7932 14.2517V14.6372H65.6157H65.4382V14.2517V13.8667H65.6157H65.7932V14.2517ZM68.7518 14.2517V14.6372H68.5444H68.3375V14.2517V13.8667H68.5444H68.7518V14.2517ZM69.4025 14.2517V14.6372H69.1955H68.9882V14.2517V13.8667H69.1955H69.4025V14.2517ZM70.4675 14.2517V14.6372H70.2605H70.0532V14.2517V13.8667H70.2605H70.4675V14.2517ZM71.1182 14.2517V14.6372H70.9407H70.7632V14.2517V13.8667H70.9407H71.1182V14.2517ZM74.0175 14.2517V14.6372H73.8105H73.6032V14.2517V13.8667H73.8105H74.0175V14.2517ZM74.6682 14.2517V14.6372H74.4907H74.3132V14.2517V13.8667H74.4907H74.6682V14.2517ZM75.7332 14.2517V14.6372H75.5557H75.3782V14.2517V13.8667H75.5557H75.7332V14.2517ZM76.4432 14.2517V14.6372H76.2362H76.0293V14.2517V13.8667H76.2362H76.4432V14.2517ZM58.3382 15.7333V16.1184H56.7112H55.0843V15.7333V15.3483H56.7112H58.3382V15.7333ZM84.1943 15.7333V16.1184H82.5669H80.94V15.7333V15.3483H82.5669H84.1943V15.7333ZM60.8825 16.4149C60.8825 16.4484 60.7149 16.474 60.498 16.474H60.1132V16.7111V16.9483H59.8711C59.6787 16.9483 59.6226 16.9724 59.5981 17.0667C59.5672 17.184 59.5172 17.1851 54.6334 17.1851H49.7V16.8043C49.7 16.4562 49.7113 16.421 49.8331 16.3975C50.1313 16.3399 60.8825 16.357 60.8825 16.4149ZM78.2182 16.4149C78.2182 16.454 75.3487 16.474 69.728 16.474C64.107 16.474 61.2375 16.454 61.2375 16.4149C61.2375 16.3755 64.107 16.3556 69.728 16.3556C75.3487 16.3556 78.2182 16.3755 78.2182 16.4149ZM89.4525 16.3925C89.6364 16.4295 89.6375 16.4316 89.6375 16.8075V17.1851H84.763H79.8888L79.8562 17.0599C79.8281 16.9532 79.788 16.9383 79.5828 16.9579L79.3425 16.981V16.7275V16.474H78.958C78.7411 16.474 78.5732 16.4484 78.5732 16.4149C78.5732 16.3495 89.1291 16.3278 89.4525 16.3925ZM79.1057 16.8594C79.1057 16.938 78.0244 16.9483 69.728 16.9483C61.4313 16.9483 60.35 16.938 60.35 16.8594C60.35 16.7804 61.4313 16.7705 69.728 16.7705C78.0244 16.7705 79.1057 16.7804 79.1057 16.8594ZM79.6382 17.3333C79.6382 17.4119 78.4976 17.4222 69.728 17.4222C60.9581 17.4222 59.8175 17.4119 59.8175 17.3333C59.8175 17.2548 60.9581 17.2444 69.728 17.2444C78.4976 17.2444 79.6382 17.2548 79.6382 17.3333ZM78.2448 22.9497C78.2285 22.9927 78.2221 23.3998 78.2313 23.8546L78.248 24.6816H79.2537H80.2594V23.7927V22.9038L79.2672 22.8875C78.4873 22.8747 78.2686 22.8878 78.2448 22.9497ZM81.2357 23.7927V24.7111H82.2418H83.2475V23.7927V22.874H82.2418H81.2357V23.7927ZM138.849 23.6107C137.999 23.9143 137.576 24.8519 137.938 25.6302C138.491 26.8192 140.22 26.7783 140.727 25.5644C141.188 24.459 139.983 23.2053 138.849 23.6107ZM139.738 23.9015C140.401 24.1422 140.695 24.9305 140.368 25.5886C140.186 25.9524 140.107 25.9381 140.107 25.5413C140.107 25.3753 140.072 25.2181 140.025 25.1712C139.956 25.1019 139.956 25.0727 140.025 24.9778C140.38 24.4917 139.993 24.1255 139.14 24.1408L138.716 24.1483V25.0667C138.716 25.9456 138.721 25.9851 138.834 25.9851C138.938 25.9851 138.955 25.9399 138.97 25.6149L138.988 25.2444H139.342C139.736 25.2444 139.811 25.3252 139.811 25.7486C139.811 25.8585 139.841 25.9673 139.878 25.99C140.174 26.1732 139.106 26.2585 138.758 26.08C137.434 25.3998 138.337 23.3924 139.738 23.9015ZM139.633 24.4676C140.04 24.5803 139.808 24.9483 139.33 24.9483H138.982V24.7211C138.982 24.405 139.159 24.3364 139.633 24.4676ZM26.418 25.7205C21.9074 26.2948 20.4203 33.5495 24.2255 36.4181C26.013 37.7657 28.6528 37.6949 30.1452 36.2599C30.6951 35.7316 30.6514 35.7205 30.765 36.4149C30.8907 37.1826 30.7742 37.0962 31.6848 37.0962H32.4825V34.0732V31.0507L30.1306 31.066L27.7787 31.0816L27.7624 31.9623C27.7411 33.1051 27.6151 33.0073 29.1111 33.0073H30.3401L30.284 33.2565C29.6187 36.2215 25.2792 35.9545 24.6679 32.9109C24.069 29.9278 25.3704 27.6149 27.6481 27.6149C28.6687 27.6149 29.874 28.4484 30.0259 29.259L30.0621 29.4517H31.2428H32.4232V29.2885C32.4232 29.0297 32.213 28.3627 32.0132 27.9868C31.0668 26.2084 29.039 25.387 26.418 25.7205ZM79.9932 25.6757C79.9769 25.6917 79.8437 25.7202 79.6975 25.7394C78.3669 25.9136 76.828 26.8903 76.27 27.9143C75.5191 29.2924 75.2674 30.709 75.4517 32.5177C75.8049 35.9847 78.4774 37.9068 82.005 37.2306C84.9845 36.6596 86.4961 34.0007 85.9991 30.2041C85.6839 27.7952 84.1602 26.1397 81.8868 25.7362C81.6567 25.6953 80.0266 25.6434 79.9932 25.6757ZM132.297 25.6775C132.28 25.6942 132.134 25.7205 131.971 25.7365C130.191 25.9093 128.943 27.1815 128.877 28.8903C128.792 31.1111 129.549 31.744 133.302 32.5906C134.997 32.9724 135.476 33.2544 135.538 33.9051C135.617 34.7292 134.977 35.2651 133.788 35.3696C132.207 35.5086 131.241 35.0148 131.023 33.9556L130.956 33.6295L129.813 33.6135L128.67 33.5975L128.71 33.9986C128.914 36.0892 130.305 37.1861 132.977 37.3636C136.122 37.5719 138.296 35.658 137.802 33.115C137.527 31.6942 136.734 31.1324 134.101 30.4917C132.006 29.9819 131.802 29.925 131.554 29.7792C130.833 29.3561 130.969 28.2748 131.794 27.8667C133.134 27.2028 134.886 27.7835 135.142 28.976L135.206 29.2764L136.34 29.2604L137.474 29.2444L137.457 28.9184C137.386 27.5591 136.226 26.2002 134.841 25.8546C134.662 25.8098 134.462 25.7579 134.397 25.7394C134.242 25.6946 132.335 25.6384 132.297 25.6775ZM1.6266 26.0295C1.60921 26.1031 1.60175 28.6162 1.61098 31.6149L1.62696 37.0667L5.8724 37.082L10.1175 37.0972V36.0956C10.1175 35.237 10.104 35.0891 10.0238 35.0581C9.97229 35.0386 8.5878 35.0222 6.94734 35.0222H3.96428V33.6295V32.2372H6.65624H9.3482V31.2295V30.2222H6.65624H3.96428V29.0962V27.9705H6.89303H9.82177V26.9333V25.8962H5.74034H1.65891L1.6266 26.0295ZM11.5666 26.0295C11.5492 26.1031 11.5417 28.6162 11.551 31.6149L11.567 37.0667L12.676 37.0827L13.785 37.099L13.8003 33.1716C13.8106 30.5042 13.8343 29.2825 13.8745 29.3628C13.9071 29.4283 14.0512 29.6814 14.1947 29.926C14.7186 30.8192 15.0793 31.4439 15.2387 31.7333C15.4002 32.027 16.0691 33.1968 16.942 34.7125C17.1912 35.1452 17.395 35.5132 17.395 35.53C17.395 35.5467 17.488 35.6988 17.602 35.8681C17.7159 36.0377 17.8093 36.1973 17.8093 36.2233C17.8093 36.2492 17.9197 36.4562 18.0553 36.6834L18.3009 37.0962H19.4753H20.6493V31.4962V25.8962H19.5552H18.4607L18.4458 29.7227L18.4305 33.5492L18.0684 32.9376C17.6651 32.256 17.0989 31.2668 16.701 30.5483C16.5565 30.2873 16.3378 29.9008 16.215 29.6889C16.0918 29.477 15.7787 28.9305 15.5188 28.474C15.259 28.0178 14.8227 27.2519 14.5493 26.7723L14.052 25.9001L12.8254 25.8983C11.6017 25.8962 11.5989 25.8965 11.5666 26.0295ZM34.3757 31.4962V37.0962H38.6077H42.8396L42.8233 36.074L42.807 35.0517L39.7451 35.0364L36.6832 35.0212V33.6299V32.2382L39.3901 32.2229L42.097 32.2073V31.2295V30.2517L39.3901 30.2364L36.6832 30.2212V29.0958V27.9705H39.612H42.5407V26.9333V25.8962H38.4582H34.3757V31.4962ZM44.4747 25.9346C44.4524 25.957 44.4343 28.4775 44.4343 31.5356V37.0962H48.3687H52.3032V36.0594V35.0222H49.5523H46.8014L46.7865 30.474L46.7712 25.926L45.6434 25.91C45.0232 25.9012 44.4971 25.9122 44.4747 25.9346ZM65.2398 25.9417C65.2156 25.9812 65.817 27.8222 66.4443 29.6295C66.5518 29.9392 66.6605 30.2727 66.6857 30.3705C66.7109 30.4683 67.0687 31.5349 67.4809 32.7406C67.8934 33.9467 68.3595 35.3333 68.5168 35.8222C68.674 36.3111 68.8338 36.7979 68.8718 36.9038L68.9406 37.0962H70.0571C71.0834 37.0962 71.1782 37.0873 71.2322 36.9863C71.2645 36.9259 71.4633 36.3595 71.6745 35.7273C71.8854 35.0951 72.3146 33.8311 72.6284 32.9184C72.9422 32.006 73.3281 30.8725 73.4853 30.4C73.643 29.9275 74.0398 28.7541 74.3675 27.7927C74.6952 26.8309 74.9632 26.0107 74.9636 25.9691C74.9639 25.91 74.6984 25.8972 73.7374 25.91L72.5105 25.926L72.2531 26.8444C72.1118 27.3497 71.8257 28.3495 71.6177 29.0667C71.4097 29.7838 71.1331 30.7438 71.0032 31.2C70.8733 31.6562 70.6631 32.3897 70.5356 32.8295C70.4086 33.2697 70.2832 33.7095 70.2577 33.8073C70.2318 33.9051 70.2055 34.0053 70.1987 34.0295C70.192 34.054 70.1831 34.1156 70.1792 34.1664C70.1668 34.3175 70.0695 34.2091 70.0305 34.0007C70.0106 33.8944 69.8068 33.1673 69.5779 32.3851C69.3489 31.6028 69.1348 30.843 69.1022 30.6962C69.0691 30.5497 68.8845 29.8962 68.6918 29.2444C68.4987 28.5927 68.2764 27.8059 68.198 27.4962C68.1195 27.1865 67.9839 26.7001 67.8969 26.4149L67.7386 25.8962H66.5032C65.8237 25.8962 65.255 25.9168 65.2398 25.9417ZM87.6665 25.9346C87.6442 25.957 87.6257 28.4779 87.6257 31.5364V37.0972L91.5751 37.082L95.5245 37.0667L95.5408 36.0444L95.5571 35.0222H92.8048H90.0525L90.0372 30.474L90.0219 25.926L88.8646 25.91C88.2281 25.9012 87.6889 25.9122 87.6665 25.9346ZM97.1922 25.9346C97.1699 25.957 97.1518 28.4775 97.1518 31.5356V37.0962H98.335H99.5182L99.52 35.2149L99.5218 33.3333L100.032 32.7865L100.541 32.2393L100.843 32.6496C101.01 32.875 101.425 33.4631 101.767 33.9559C102.108 34.4484 102.495 34.9963 102.624 35.1726C102.755 35.3493 103.114 35.8539 103.423 36.294L103.986 37.0944L105.479 37.0951C106.432 37.0958 106.973 37.0748 106.973 37.0372C106.973 37.0048 106.636 36.518 106.223 35.9559C105.81 35.3934 105.22 34.5867 104.912 34.1628C104.604 33.7394 104.243 33.2508 104.109 33.0773C103.976 32.9038 103.782 32.6372 103.678 32.4846C103.574 32.3321 103.208 31.8222 102.865 31.3515L102.241 30.4956L104.486 28.2439C105.72 27.0055 106.717 25.9705 106.7 25.9442C106.684 25.9179 106.011 25.8962 105.204 25.8962H103.738L103.361 26.2962C103.154 26.5163 102.704 26.9916 102.361 27.3522C102.018 27.7131 101.566 28.1931 101.357 28.4188C101.147 28.645 100.655 29.1719 100.262 29.5904L99.548 30.3509L99.5182 28.1383L99.4887 25.926L98.3609 25.91C97.7407 25.9012 97.2146 25.9122 97.1922 25.9346ZM108.006 25.9705C107.991 26.011 107.985 28.5244 107.993 31.5556L108.009 37.0667L112.255 37.082L116.502 37.0972L116.486 36.0743L116.469 35.0517L113.408 35.0364L110.346 35.0212V33.6292V32.2372H113.037H115.728L115.761 32.1038C115.779 32.0302 115.786 31.5836 115.776 31.1111L115.759 30.2517L113.053 30.2364L110.346 30.2212V29.0958V27.9705H113.274H116.203V26.9333V25.8962H112.119C108.906 25.8962 108.029 25.9122 108.006 25.9705ZM118.21 25.9211C118.197 25.9346 118.192 28.4544 118.201 31.5211L118.216 37.0962H119.369H120.521L120.537 34.9184L120.552 32.7406L122.061 32.7442C124.538 32.7502 124.583 32.7886 124.666 34.9333C124.712 36.1223 124.788 36.7662 124.909 36.9924C124.959 37.0866 125.085 37.0962 126.264 37.0962H127.563V36.9255C127.563 36.8068 127.516 36.7236 127.411 36.6542C127.138 36.4754 127.088 36.2393 127.055 34.9746C127 32.8565 126.814 32.3115 126.007 31.9019L125.716 31.7543L125.96 31.6334C126.942 31.147 127.529 29.8478 127.326 28.6076C127.096 27.1996 126.132 26.2478 124.664 25.9812C124.247 25.9054 118.281 25.8496 118.21 25.9211ZM81.4934 27.7678C83.2152 28.2119 84.1197 30.4245 83.5805 32.8732C82.8715 36.0932 78.7763 36.2123 77.9459 33.0372C77.8078 32.5088 77.7887 30.7015 77.915 30.1038C78.2853 28.3531 79.8363 27.3404 81.4934 27.7678ZM123.906 27.9783C124.751 28.1596 125.196 29.0439 124.891 29.9317C124.631 30.6869 124.216 30.8149 122.028 30.8149H120.522V29.3628V27.9111H122.058C122.977 27.9111 123.719 27.9381 123.906 27.9783Z" fill="#7D00FF"/>
<path fill-rule="evenodd" clip-rule="evenodd" d="M63.1307 0.63609L63.8407 0.655646V0.937957C63.8407 1.09369 63.8159 1.24622 63.7857 1.27716C63.7552 1.30809 63.7221 1.44 63.7115 1.57049L63.693 1.80729H63.1605H62.628L62.6089 1.57369C62.5794 1.21067 62.5144 1.18933 61.4416 1.1872L60.4924 1.18507L59.9357 1.4816C59.6297 1.64445 59.3542 1.77778 59.3237 1.77778C59.2928 1.77778 58.9854 1.92782 58.6403 2.11165C57.8739 2.51947 58.0006 2.45582 55.7645 3.55662C54.7559 4.05333 53.611 4.62151 53.2205 4.81956C52.83 5.01725 52.404 5.22845 52.2737 5.28853C52.1435 5.34862 51.9038 5.46489 51.7412 5.54667C51.5787 5.62845 51.2059 5.81511 50.913 5.9616C49.0798 6.87858 48.6258 7.14809 49.1856 6.98738C49.4405 6.91413 49.5225 6.91947 49.5225 7.00836C49.5225 7.04996 49.5903 7.18365 49.6734 7.30596L49.8242 7.52818L55.1315 7.52605C58.0503 7.52462 60.4654 7.52711 60.498 7.53173C60.5303 7.53636 60.5772 7.53671 60.6017 7.5328C60.6262 7.52889 67.1656 7.52569 75.1343 7.52533L89.6222 7.52498L89.7777 7.2896C89.8633 7.16018 89.9332 7.02436 89.9332 6.98738C89.9332 6.94365 89.9893 6.93511 90.0962 6.96356C90.6723 7.11609 90.5289 6.93653 89.7696 6.55467C89.3879 6.36302 88.8224 6.07716 88.5132 5.92036C87.9814 5.65013 87.6041 5.46311 87.0637 5.2032C86.9335 5.14062 86.5742 4.95965 86.265 4.80142C85.9558 4.6432 84.851 4.09529 83.8095 3.584C82.7682 3.07271 81.6631 2.5248 81.3543 2.36693C81.0451 2.20871 80.6588 2.01351 80.4962 1.93316C80.3337 1.8528 79.9307 1.65156 79.6013 1.48622L79.0024 1.18507H77.9963C76.8806 1.18507 76.8784 1.18578 76.8472 1.5712L76.828 1.80729H76.2955H75.763L75.7439 1.57369C75.7105 1.16302 76.1148 1.18898 69.7163 1.1872L63.9064 1.18507L63.8883 0.903823L63.8705 0.622223L63.1456 0.619379L62.4207 0.616535L63.1307 0.63609ZM75.9576 0.636446C76.1621 0.648179 76.4816 0.648179 76.6676 0.636446C76.8532 0.624712 76.686 0.615112 76.2955 0.615112C75.905 0.615468 75.7527 0.625068 75.9576 0.636446ZM70.1281 3.47129C70.6432 3.64693 71.0927 4.1696 71.2066 4.72605L71.246 4.9184H69.7032H68.16V4.74062C68.16 4.64285 68.1859 4.56285 68.2172 4.56285C68.2487 4.56285 68.2605 4.52658 68.2434 4.48178C68.2264 4.43698 68.2527 4.36018 68.3016 4.31111C68.351 4.26169 68.3734 4.20373 68.3517 4.18205C68.33 4.16071 68.3794 4.08391 68.461 4.01209C68.5427 3.94027 68.5682 3.90827 68.5178 3.94062C68.4369 3.99289 68.4362 3.9872 68.5107 3.89227C68.8175 3.50151 69.6116 3.29493 70.1281 3.47129ZM69.8214 3.89262C69.8189 4.02951 69.8377 4.15431 69.8636 4.16996C69.8892 4.18596 69.9006 4.10098 69.8888 3.98116C69.8565 3.65298 69.8267 3.61387 69.8214 3.89262ZM70.2421 3.83253C70.2495 3.85956 70.2229 3.94133 70.1821 4.01493C70.0834 4.19342 70.1338 4.18525 70.2531 4.0032C70.3131 3.91147 70.3259 3.84427 70.2879 3.8208C70.2549 3.80053 70.2343 3.80587 70.2421 3.83253ZM61.8374 4.00427C61.9365 4.05547 62.0547 4.0832 62.1009 4.06542C62.2116 4.02276 62.2063 4.04516 62.0657 4.20729C62.0007 4.28267 61.9475 4.41991 61.9475 4.51271C61.9475 5.00658 61.4093 5.04 61.3312 4.55111C61.3089 4.41173 61.2322 4.23396 61.1605 4.15645C61.0369 4.02205 61.0362 4.01671 61.1487 4.04942C61.2137 4.06827 61.3337 4.04587 61.415 3.99965C61.6035 3.89227 61.6213 3.89227 61.8374 4.00427ZM78.1128 4.02098C78.307 4.12018 78.3194 4.14009 78.237 4.22258C78.187 4.27271 78.1323 4.43662 78.1153 4.58631C78.084 4.864 78.0496 4.8928 77.7773 4.8672C77.6303 4.85333 77.5696 4.75733 77.5686 4.53653C77.5679 4.42987 77.5071 4.29902 77.412 4.19947C77.275 4.05618 77.2707 4.04053 77.3758 4.06791C77.4418 4.08533 77.5718 4.05796 77.6648 4.00747C77.8781 3.89156 77.8582 3.8912 78.1128 4.02098ZM61.7107 5.248C61.7107 5.34578 61.6174 5.36213 61.563 5.27396C61.5148 5.19573 61.5854 5.0848 61.6557 5.12853C61.6862 5.14738 61.7107 5.20107 61.7107 5.248ZM77.9552 5.16089C78.0162 5.25938 77.8792 5.3728 77.7975 5.29102C77.7294 5.22276 77.772 5.09618 77.8632 5.09618C77.892 5.09618 77.9335 5.12533 77.9552 5.16089ZM62.273 5.62951C62.273 5.70169 62.1573 5.7216 61.6568 5.73547C61.0589 5.75218 60.8846 5.71093 60.9691 5.57369C61.0373 5.46347 62.273 5.5168 62.273 5.62951ZM66.237 5.62951C66.237 5.73405 62.8013 5.79733 62.699 5.69493C62.5354 5.53102 62.7583 5.50969 64.4808 5.52498C65.9956 5.53849 66.237 5.55307 66.237 5.62951ZM67.598 5.62951C67.598 5.70062 67.4933 5.72196 67.0801 5.73547C66.5898 5.75182 66.5625 5.74613 66.5625 5.62951C66.5625 5.51289 66.5898 5.50756 67.0801 5.52356C67.4933 5.53742 67.598 5.55876 67.598 5.62951ZM71.503 5.62951C71.503 5.7408 68.0666 5.79662 67.9573 5.68747C67.8103 5.53991 68.1241 5.51253 69.787 5.5264C71.2666 5.53885 71.503 5.55307 71.503 5.62951ZM72.8637 5.62951C72.8637 5.69956 72.7647 5.72231 72.3959 5.73582C71.9358 5.75325 71.775 5.70489 71.8563 5.57333C71.9234 5.46453 72.8637 5.51716 72.8637 5.62951ZM76.7982 5.5712C77.0126 5.71236 76.6658 5.74649 75.0122 5.7472C73.3725 5.74827 73.1804 5.72836 73.278 5.57049C73.327 5.49085 76.6775 5.49191 76.7982 5.5712ZM78.4845 5.62951C78.4845 5.70169 78.3691 5.7216 77.8685 5.73547C77.2704 5.75218 77.0961 5.71093 77.1809 5.57369C77.2487 5.46347 78.4845 5.5168 78.4845 5.62951ZM62.0657 6.34062V6.69618H61.6518H61.2375V6.34062V5.98507H61.6518H62.0657V6.34062ZM66.5625 6.34062V6.69618H64.462H62.3618V6.34062V5.98507H64.462H66.5625V6.34062ZM67.3318 6.34062V6.69618H67.095H66.8582V6.34062V5.98507H67.095H67.3318V6.34062ZM71.8875 6.34062V6.69618H69.7575H67.6275V6.34062V5.98507H69.7575H71.8875V6.34062ZM72.6568 6.34062V6.69618H72.3905H72.1243V6.34062V5.98507H72.3905H72.6568V6.34062ZM77.1532 6.34062V6.69618H75.0232H72.8932V6.34062V5.98507H75.0232H77.1532V6.34062ZM78.2182 6.34062V6.69618H77.8043H77.39V6.34062V5.98507H77.8043H78.2182V6.34062ZM62.273 7.0816C62.273 7.14702 61.2329 7.19645 61.0131 7.14169C60.9386 7.12285 60.8942 7.08089 60.9144 7.04818C60.9631 6.96925 62.273 7.0016 62.273 7.0816ZM66.2334 7.04569C66.2994 7.15307 66.0446 7.17049 64.4016 7.17049C62.8794 7.17049 62.5833 7.14596 62.6987 7.0304C62.7576 6.97138 66.1965 6.98596 66.2334 7.04569ZM67.5689 7.0816C67.5689 7.11502 67.3506 7.14809 67.0659 7.15769C66.6395 7.17227 66.5625 7.16053 66.5625 7.0816C66.5625 7.00231 66.6395 6.99058 67.0659 7.00516C67.3506 7.01476 67.5689 7.04782 67.5689 7.0816ZM71.5584 7.04569C71.6244 7.15271 71.371 7.17049 69.7575 7.17049C68.144 7.17049 67.8906 7.15271 67.9566 7.04569C67.9995 6.97636 71.5155 6.97636 71.5584 7.04569ZM72.8787 7.06667C72.8616 7.11787 72.7026 7.14062 72.3607 7.14062C72.0188 7.14062 71.8602 7.11787 71.8431 7.06667C71.8247 7.01085 71.9532 6.99271 72.3607 6.99271C72.7683 6.99271 72.8971 7.01085 72.8787 7.06667ZM76.8241 7.04569C76.8902 7.15271 76.6367 7.17049 75.0232 7.17049C73.4101 7.17049 73.1566 7.15271 73.2227 7.04569C73.2653 6.97636 76.7812 6.97636 76.8241 7.04569ZM78.5143 7.05173C78.5143 7.088 78.248 7.11111 77.8337 7.11111C77.4195 7.11111 77.1532 7.088 77.1532 7.05173C77.1532 7.01582 77.4195 6.99271 77.8337 6.99271C78.248 6.99271 78.5143 7.01582 78.5143 7.05173ZM49.6095 12.0295C49.6095 14.1643 49.6169 15.0379 49.6262 13.9705C49.635 12.9031 49.635 11.1563 49.6262 10.0889C49.6169 9.02151 49.6095 9.89476 49.6095 12.0295ZM75.3487 8.88889C75.369 8.9216 75.4254 8.94827 75.4741 8.94827C75.5231 8.94827 75.5465 8.9216 75.5262 8.88889C75.506 8.85618 75.4496 8.82951 75.4009 8.82951C75.3519 8.82951 75.3285 8.85618 75.3487 8.88889ZM64.5656 9.33333C64.5663 9.46382 64.5784 9.51005 64.5926 9.43645C64.6068 9.36249 64.6064 9.25582 64.5915 9.19929C64.5766 9.14276 64.5653 9.20285 64.5656 9.33333ZM73.8396 9.28889C73.758 9.37849 73.6547 9.49902 73.6096 9.55698C73.4456 9.76676 73.6838 9.59787 73.8911 9.35716C74.1155 9.09689 74.0693 9.03609 73.8396 9.28889ZM76.0293 9.16729C76.0293 9.23093 76.3158 9.51538 76.3406 9.47662C76.3495 9.46311 76.2831 9.37529 76.1929 9.28142C76.1028 9.18756 76.0293 9.13636 76.0293 9.16729ZM74.2209 9.42827C74.1989 9.46418 74.2429 9.55058 74.3189 9.62062L74.457 9.74827L74.3498 9.61849C74.2909 9.54738 74.26 9.46062 74.2816 9.42613C74.3029 9.39129 74.3072 9.36285 74.2909 9.36285C74.2745 9.36285 74.2429 9.39236 74.2209 9.42827ZM54.1375 9.44071C54.1375 9.45102 54.2241 9.53778 54.3299 9.63342L54.522 9.80729L54.3484 9.61493C54.1865 9.43538 54.1375 9.39485 54.1375 9.44071ZM68.2935 9.59787C68.2335 9.69387 68.2356 9.70845 68.3041 9.68213C68.3936 9.64765 68.4806 9.4816 68.4092 9.4816C68.3854 9.4816 68.3332 9.53387 68.2935 9.59787ZM58.5952 10.1628C58.5956 10.4238 58.6059 10.523 58.6183 10.3836C58.6307 10.2443 58.6307 10.0309 58.618 9.90969C58.6052 9.78809 58.5952 9.90222 58.5952 10.1628ZM84.4509 10.1628C84.4513 10.4238 84.4616 10.523 84.4744 10.3836C84.4868 10.2443 84.4864 10.0309 84.4737 9.90969C84.4612 9.78809 84.4509 9.90222 84.4509 10.1628ZM64.5692 10.1038C64.5695 10.2994 64.5805 10.3723 64.5937 10.2656C64.6068 10.1589 64.6064 9.99893 64.593 9.91005C64.5795 9.82116 64.5688 9.90827 64.5692 10.1038ZM81.7682 10.0583L82.4782 10.0779V12.5038V14.9298L81.7831 14.949L81.088 14.9685L81.798 14.9657L82.508 14.9628V12.5038V10.0444L81.7831 10.0416L81.0582 10.0388L81.7682 10.0583ZM83.7409 10.8149C83.7413 11.0756 83.7516 11.1748 83.7644 11.0354C83.7768 10.896 83.7764 10.6827 83.7637 10.5614C83.7512 10.4402 83.7409 10.554 83.7409 10.8149ZM77.0623 13.274C77.0623 14.8224 77.0701 15.4556 77.0794 14.6816C77.0886 13.9076 77.0886 12.6407 77.0794 11.8667C77.0701 11.0926 77.0623 11.7259 77.0623 13.274ZM67.9825 13.3038C67.9825 14.8302 67.9953 16.0661 68.0109 16.0505C68.0503 16.011 68.0539 10.5998 68.0144 10.5604C67.9967 10.5429 67.9825 11.7774 67.9825 13.3038ZM63.1431 10.8292C63.3611 10.8405 63.7339 10.8405 63.9714 10.8292C64.2088 10.8181 64.0303 10.8085 63.5745 10.8085C63.119 10.8085 62.9248 10.8178 63.1431 10.8292ZM64.5188 10.8597C64.5028 10.9006 64.4975 11.8407 64.5063 12.9486L64.523 14.9628L64.5369 12.9006L64.5507 10.838L65.3441 10.8562C65.7804 10.8661 66.1248 10.854 66.1099 10.8295C66.0595 10.7484 64.5504 10.7769 64.5188 10.8597ZM68.3375 10.8245C68.9779 10.8679 69.6986 10.8704 69.6986 10.8295C69.6986 10.8053 69.3322 10.79 68.8849 10.7957C68.4373 10.8018 68.1912 10.8146 68.3375 10.8245ZM70.1839 10.8292C70.4022 10.8405 70.7749 10.8405 71.0121 10.8292C71.2496 10.8181 71.071 10.8085 70.6155 10.8085C70.1597 10.8085 69.9655 10.8178 70.1839 10.8292ZM73.7339 10.8292C73.9522 10.8405 74.3249 10.8405 74.5621 10.8292C74.7996 10.8181 74.621 10.8085 74.1655 10.8085C73.7097 10.8085 73.5155 10.8178 73.7339 10.8292ZM75.4496 10.8292C75.6679 10.8405 76.0406 10.8405 76.2781 10.8292C76.5153 10.8181 76.3367 10.8085 75.8812 10.8085C75.4258 10.8085 75.2316 10.8178 75.4496 10.8292ZM69.3617 11.4667C69.362 11.6622 69.373 11.7351 69.3862 11.6284C69.3993 11.5221 69.3989 11.3621 69.3855 11.2729C69.372 11.184 69.3613 11.2711 69.3617 11.4667ZM70.0717 11.4667C70.072 11.6622 70.083 11.7351 70.0962 11.6284C70.1093 11.5221 70.1089 11.3621 70.0955 11.2729C70.082 11.184 70.0713 11.2711 70.0717 11.4667ZM71.0774 11.4667C71.0777 11.6622 71.0887 11.7351 71.1019 11.6284C71.1154 11.5221 71.115 11.3621 71.1015 11.2729C71.088 11.184 71.077 11.2711 71.0774 11.4667ZM83.7409 11.9406C83.7413 12.2016 83.7516 12.3008 83.7644 12.1614C83.7768 12.022 83.7764 11.8087 83.7637 11.6875C83.7512 11.5659 83.7409 11.68 83.7409 11.9406ZM69.3617 12.4149C69.362 12.6105 69.373 12.6834 69.3862 12.5767C69.3993 12.47 69.3989 12.31 69.3855 12.2212C69.372 12.1323 69.3613 12.2194 69.3617 12.4149ZM70.0717 12.4149C70.072 12.6105 70.083 12.6834 70.0962 12.5767C70.1093 12.47 70.1089 12.31 70.0955 12.2212C70.082 12.1323 70.0713 12.2194 70.0717 12.4149ZM71.0774 12.4149C71.0777 12.6105 71.0887 12.6834 71.1019 12.5767C71.1154 12.47 71.115 12.31 71.1015 12.2212C71.088 12.1323 71.077 12.2194 71.0774 12.4149ZM83.7321 13.0194L83.7207 13.4464L83.3213 13.467L82.922 13.488L83.3235 13.4994C83.7921 13.5129 83.7949 13.5093 83.7647 12.9714L83.7438 12.5927L83.7321 13.0194ZM69.3603 13.3038C69.3606 13.4667 69.3723 13.5264 69.3858 13.4361C69.3993 13.3461 69.3989 13.2128 69.3851 13.1399C69.3709 13.067 69.3599 13.1406 69.3603 13.3038ZM70.0703 13.3038C70.0706 13.4667 70.0823 13.5264 70.0958 13.4361C70.1093 13.3461 70.1089 13.2128 70.0951 13.1399C70.0809 13.067 70.0699 13.1406 70.0703 13.3038ZM71.076 13.3038C71.0767 13.4667 71.088 13.5264 71.1015 13.4361C71.1154 13.3461 71.115 13.2128 71.1008 13.1399C71.0866 13.067 71.0756 13.1406 71.076 13.3038ZM81.5463 13.4951C81.6685 13.5079 81.8683 13.5079 81.9901 13.4951C82.1122 13.4823 82.0125 13.4716 81.7682 13.4716C81.5243 13.4716 81.4246 13.4823 81.5463 13.4951ZM83.7409 14.2517C83.7413 14.5127 83.7516 14.6119 83.7644 14.4725C83.7768 14.3332 83.7764 14.1198 83.7637 13.9986C83.7512 13.877 83.7409 13.9911 83.7409 14.2517ZM69.3627 14.2517C69.3631 14.48 69.3737 14.566 69.3865 14.443C69.3993 14.32 69.3989 14.1333 69.3862 14.0284C69.373 13.9232 69.3624 14.0238 69.3627 14.2517ZM70.0727 14.2517C70.0731 14.48 70.0837 14.566 70.0965 14.443C70.1093 14.32 70.1089 14.1333 70.0962 14.0284C70.083 13.9232 70.0724 14.0238 70.0727 14.2517ZM71.0785 14.2517C71.0788 14.48 71.0895 14.566 71.1022 14.443C71.115 14.32 71.115 14.1333 71.1019 14.0284C71.0887 13.9232 71.0785 14.0238 71.0785 14.2517ZM69.6542 14.2517C69.6549 14.3822 69.667 14.4284 69.6812 14.3548C69.695 14.2812 69.6947 14.1746 69.6798 14.1177C69.6648 14.0612 69.6535 14.1216 69.6542 14.2517ZM55.2384 15.003C55.2518 15.0251 55.2163 15.0553 55.1588 15.0702C55.1017 15.0852 55.8 15.0972 56.7112 15.0972C57.6225 15.0972 58.3208 15.0852 58.2637 15.0702C58.2062 15.0553 58.1707 15.0244 58.1849 15.002C58.1987 14.9792 58.1124 14.9671 57.9932 14.9753C57.4379 15.0123 56.6328 15.024 56.6505 14.9952C56.6615 14.9774 56.3428 14.9628 55.942 14.9628C55.5415 14.9628 55.2249 14.981 55.2384 15.003ZM68.7788 14.9764L69.339 14.997L69.3595 15.5428L69.3805 16.0889L69.3766 15.526L69.373 14.9628L68.7958 14.9596L68.2189 14.9561L68.7788 14.9764ZM79.3585 16.7111C79.3585 16.858 79.3702 16.9177 79.3844 16.8444C79.3982 16.7712 79.3982 16.651 79.3844 16.5778C79.3702 16.5045 79.3585 16.5643 79.3585 16.7111ZM69.6652 16.8149C77.051 16.8267 79.0202 16.8455 79.0571 16.9038C79.0904 16.9564 79.1043 16.9479 79.105 16.874C79.1057 16.7758 78.625 16.7712 69.7131 16.7851L60.3205 16.7996L69.6652 16.8149ZM138.639 25.0482C138.632 25.5762 138.647 26.0203 138.672 26.0356C138.696 26.0505 138.709 25.7657 138.701 25.402C138.673 24.2034 138.65 24.0747 138.639 25.0482ZM140.12 25.5406C140.12 25.6548 140.133 25.7013 140.148 25.6444C140.162 25.5876 140.162 25.494 140.148 25.4372C140.133 25.3799 140.12 25.4265 140.12 25.5406ZM20.6635 31.4837L20.6493 37.1008L19.4419 37.0837C18.7777 37.0745 18.247 37.0866 18.2619 37.1111C18.3127 37.1929 20.6496 37.1644 20.6812 37.0816C20.6965 37.0407 20.7022 34.5006 20.6937 31.4372L20.678 25.8667L20.6635 31.4837ZM46.8298 30.4295L46.8305 34.9927L49.5669 35.008L52.3032 35.0233V36.0608V37.098L48.3421 37.0823C46.1635 37.0738 44.4009 37.0869 44.4258 37.1115C44.4503 37.1364 46.2395 37.1495 48.4018 37.1413L52.333 37.126V36.0594V34.9927L49.5967 34.9771L46.8607 34.9618L46.8451 30.4142L46.8295 25.8667L46.8298 30.4295ZM106.114 26.6222L105.524 27.2295L106.13 26.6382C106.693 26.0889 106.763 26.0149 106.721 26.0149C106.712 26.0149 106.439 26.288 106.114 26.6222ZM103.213 26.3851L103.039 26.5778L103.231 26.4036C103.41 26.2414 103.451 26.1927 103.405 26.1927C103.394 26.1927 103.308 26.2791 103.213 26.3851ZM126.208 26.6222C126.222 26.6304 126.353 26.7438 126.499 26.874L126.764 27.1111L126.531 26.8594C126.402 26.7207 126.271 26.6073 126.24 26.6073C126.209 26.6073 126.194 26.614 126.208 26.6222ZM136.32 26.6258C136.32 26.6361 136.407 26.7228 136.512 26.8185L136.704 26.9927L136.531 26.8C136.369 26.6204 136.32 26.5803 136.32 26.6258ZM102.267 27.3927L102.033 27.6444L102.284 27.4101C102.423 27.2814 102.536 27.168 102.536 27.1584C102.536 27.1136 102.484 27.1584 102.267 27.3927ZM104.96 27.7778L104.636 28.1184L104.976 27.7945C105.163 27.6164 105.317 27.4631 105.317 27.4539C105.317 27.4098 105.26 27.4613 104.96 27.7778ZM101.379 28.3406L101.146 28.5927L101.397 28.3584C101.535 28.2293 101.648 28.1163 101.648 28.1067C101.648 28.0615 101.597 28.1067 101.379 28.3406ZM104.072 28.6667L103.749 29.0073L104.089 28.6834C104.276 28.5052 104.429 28.352 104.429 28.3428C104.429 28.2987 104.372 28.3502 104.072 28.6667ZM100.462 29.3184L100.258 29.5406L100.48 29.3365C100.602 29.2242 100.702 29.1243 100.702 29.1143C100.702 29.0692 100.652 29.1118 100.462 29.3184ZM99.6925 30.1483L99.4888 30.3705L99.7106 30.166C99.8327 30.0537 99.9325 29.9538 99.9325 29.9438C99.9325 29.8987 99.8824 29.9413 99.6925 30.1483ZM5.31434 30.2073C6.07298 30.2169 7.29773 30.2169 8.03577 30.2073C8.77417 30.198 8.15328 30.1902 6.65624 30.1902C5.15921 30.1902 4.55535 30.198 5.31434 30.2073ZM38.0294 30.2073C38.7859 30.2169 40.0241 30.2169 40.7806 30.2073C41.5371 30.198 40.9184 30.1902 39.405 30.1902C37.8916 30.1902 37.2729 30.198 38.0294 30.2073ZM111.692 30.2073C112.448 30.2169 113.687 30.2169 114.443 30.2073C115.2 30.198 114.581 30.1902 113.068 30.1902C111.554 30.1902 110.935 30.198 111.692 30.2073ZM30.1601 31.0368L32.4825 31.0532V34.0732V37.093L31.6837 37.1122L30.885 37.131L31.6983 37.1285L32.512 37.126V34.074V31.0222L30.175 31.0212L27.838 31.0201L30.1601 31.0368ZM83.6806 31.526C83.6806 31.738 83.6913 31.8244 83.7044 31.7184C83.7175 31.6124 83.7175 31.4393 83.7044 31.3333C83.6913 31.2274 83.6806 31.3141 83.6806 31.526ZM127.047 34.9628C127.047 35.1097 127.058 35.1698 127.073 35.0962C127.087 35.0229 127.087 34.9031 127.073 34.8295C127.058 34.7563 127.047 34.8164 127.047 34.9628ZM91.4313 35.0073C92.2066 35.0169 93.458 35.0169 94.212 35.0073C94.9664 34.998 94.3324 34.9902 92.803 34.9902C91.2733 34.9902 90.6564 34.998 91.4313 35.0073ZM84.5752 35.926L84.4012 36.1184L84.5937 35.9445C84.7729 35.7824 84.8131 35.7333 84.7673 35.7333C84.757 35.7333 84.6707 35.8201 84.5752 35.926ZM103.839 36.9557C103.834 37.1385 104.007 37.1577 105.531 37.1406L107.062 37.1239L105.512 37.11C104.107 37.0976 103.956 37.0866 103.901 36.9927C103.868 36.9355 103.84 36.9191 103.839 36.9557ZM11.5762 37.1111C11.5915 37.1356 12.0931 37.1556 12.6912 37.1556C13.2894 37.1556 13.791 37.1356 13.8063 37.1111C13.8212 37.0866 13.3196 37.0667 12.6912 37.0667C12.0629 37.0667 11.5613 37.0866 11.5762 37.1111ZM34.3672 37.1115C34.392 37.136 36.3144 37.1495 38.6393 37.141L42.8662 37.126L38.5945 37.0962C36.2448 37.0798 34.3427 37.0869 34.3672 37.1115ZM97.144 37.1125C97.1692 37.1374 97.7205 37.1509 98.3687 37.142L99.548 37.1257L98.3229 37.0962C97.6495 37.0798 97.1188 37.0873 97.144 37.1125ZM118.194 37.1111C118.21 37.1356 118.738 37.1556 119.369 37.1556C120 37.1556 120.528 37.1356 120.543 37.1111C120.558 37.0866 120.03 37.0667 119.369 37.0667C118.708 37.0667 118.179 37.0866 118.194 37.1111ZM3.77613 37.1406C4.95828 37.1499 6.87528 37.1499 8.03613 37.1406C9.19733 37.1317 8.22996 37.1243 5.88696 37.1243C3.54396 37.1243 2.59433 37.1317 3.77613 37.1406ZM62.6426 37.1406C63.0089 37.1509 63.6078 37.1509 63.9738 37.1406C64.3402 37.1303 64.0406 37.1218 63.3082 37.1218C62.5762 37.1218 62.2766 37.1303 62.6426 37.1406ZM69.5094 37.1406C69.8445 37.1513 70.377 37.1509 70.6926 37.1403C71.0082 37.13 70.7338 37.1211 70.083 37.1211C69.432 37.1214 69.1739 37.13 69.5094 37.1406ZM89.5931 37.1406C90.6915 37.1499 92.4885 37.1499 93.5869 37.1406C94.6852 37.1317 93.7867 37.1243 91.59 37.1243C89.3936 37.1243 88.4948 37.1317 89.5931 37.1406ZM110.158 37.1406C111.34 37.1499 113.257 37.1499 114.418 37.1406C115.579 37.1317 114.612 37.1243 112.269 37.1243C109.926 37.1243 108.976 37.1317 110.158 37.1406ZM125.57 37.1406C125.954 37.1509 126.566 37.1509 126.931 37.1406C127.295 37.13 126.981 37.1218 126.232 37.1218C125.484 37.1218 125.185 37.1303 125.57 37.1406Z" fill="#7D00FF"/>
<path fill-rule="evenodd" clip-rule="evenodd" d="M44.4034 31.5261C44.4034 34.5732 44.4105 35.8201 44.4194 34.2962C44.4282 32.7726 44.4282 30.2791 44.4194 28.7556C44.4105 27.232 44.4034 28.4786 44.4034 31.5261Z" fill="#7D00FF"/>
<path fill-rule="evenodd" clip-rule="evenodd" d="M76.9927 0.918394C76.9931 1.08159 77.0048 1.14097 77.0183 1.05102C77.0318 0.96106 77.0314 0.827727 77.0176 0.754838C77.0034 0.681949 76.9924 0.755549 76.9927 0.918394ZM63.5645 1.27395C63.5645 1.50222 63.5755 1.58826 63.5883 1.46524C63.6011 1.34222 63.6007 1.15555 63.5876 1.05066C63.5744 0.945416 63.5641 1.04604 63.5645 1.27395ZM76.6995 1.27395C76.6995 1.50222 76.7105 1.58826 76.7233 1.46524C76.7361 1.34222 76.7357 1.15555 76.7226 1.05066C76.7094 0.945416 76.6991 1.04604 76.6995 1.27395ZM63.7026 1.2839C63.6809 1.30559 63.6632 1.4247 63.6632 1.54844V1.77315L63.1751 1.79377L62.6869 1.81439L63.19 1.81084L63.693 1.80728L63.7253 1.52604C63.7431 1.37102 63.7541 1.24444 63.7498 1.24444C63.7455 1.24444 63.7246 1.26222 63.7026 1.2839ZM76.8376 1.2839C76.8159 1.30559 76.7982 1.4247 76.7982 1.54844V1.77315L76.3101 1.79377L75.8219 1.81439L76.325 1.81084L76.828 1.80728L76.8603 1.52604C76.8781 1.37102 76.8891 1.24444 76.8848 1.24444C76.8805 1.24444 76.8596 1.26222 76.8376 1.2839ZM81.5509 7.98506C82.977 7.99395 85.2933 7.99395 86.6984 7.98506C88.1035 7.97617 86.9366 7.96906 84.1055 7.96906C81.2744 7.96906 80.1249 7.97617 81.5509 7.98506ZM50.143 12.1483L50.1437 16.0889L52.4661 16.0899L54.7882 16.091L52.4814 16.0743L50.1742 16.0579L50.1583 12.1326L50.1423 8.20728L50.143 12.1483ZM62.3618 12.1483C62.3618 14.31 62.3749 16.0658 62.3909 16.0494C62.4303 16.0103 62.4317 8.28728 62.3923 8.24782C62.3756 8.23111 62.3618 9.98613 62.3618 12.1483ZM66.4833 9.99999C66.4219 12.0316 66.435 15.7038 66.5032 15.7038C66.5422 15.7038 66.5625 14.4988 66.5625 12.2073C66.5625 10.2844 66.5532 8.71111 66.5422 8.71111C66.5312 8.71111 66.5046 9.29102 66.4833 9.99999ZM67.3002 12.2073C67.3002 14.1468 67.3076 14.9401 67.3168 13.9705C67.3261 13.0009 67.3261 11.414 67.3168 10.4444C67.3076 9.47484 67.3002 10.2681 67.3002 12.2073ZM64.2411 8.81315C64.3476 8.82666 64.5074 8.8263 64.5961 8.81279C64.6852 8.79928 64.5983 8.78826 64.403 8.78862C64.2078 8.78897 64.135 8.79999 64.2411 8.81315ZM69.5661 8.81315C69.6726 8.82666 69.8324 8.8263 69.9211 8.81279C70.0102 8.79928 69.9233 8.78826 69.728 8.78862C69.5328 8.78897 69.46 8.79999 69.5661 8.81315ZM74.8911 8.81315C74.9976 8.82666 75.1574 8.8263 75.2461 8.81279C75.3352 8.79928 75.2483 8.78826 75.053 8.78862C74.8578 8.78897 74.785 8.79999 74.8911 8.81315ZM74.8606 9.33333C74.8613 9.46382 74.8734 9.51004 74.8876 9.43644C74.9018 9.36248 74.9014 9.25582 74.8865 9.19928C74.8716 9.14275 74.8602 9.20284 74.8606 9.33333ZM75.1648 9.21066C75.1467 9.25688 75.1421 9.35715 75.1542 9.43288C75.1705 9.53386 75.1844 9.51146 75.2064 9.34826C75.2372 9.11822 75.2209 9.06382 75.1648 9.21066ZM70.8225 9.33333C70.9364 9.45493 71.1484 9.51857 71.082 9.41155C71.0649 9.38382 71.0291 9.37457 71.0025 9.39093C70.9478 9.42506 70.8079 9.27893 70.8526 9.23413C70.8686 9.21813 70.8413 9.20497 70.7919 9.20497C70.7209 9.20497 70.7273 9.23199 70.8225 9.33333ZM80.6663 9.61493C80.6379 9.65546 80.6297 9.90222 80.6482 10.1628L80.6815 10.6371L80.6925 10.1195L80.7032 9.60177L82.5524 9.58506L84.4012 9.56871L82.5595 9.55484C81.1402 9.54382 80.706 9.55768 80.6663 9.61493ZM75.1599 10.1038C75.1602 10.2994 75.1712 10.3723 75.1844 10.2656C75.1978 10.1589 75.1975 9.99893 75.184 9.91004C75.1705 9.82115 75.1595 9.90826 75.1599 10.1038ZM74.8634 10.1333C74.8634 10.3125 74.8748 10.3858 74.8883 10.2962C74.9018 10.2066 74.9018 10.0601 74.8883 9.97048C74.8748 9.88088 74.8634 9.95413 74.8634 10.1333ZM55.2412 10.1184C55.2259 10.1429 55.4307 10.1557 55.6959 10.1468C56.5256 10.1195 56.6193 10.0942 55.9309 10.0839C55.5667 10.0786 55.2561 10.0942 55.2412 10.1184ZM57.1106 10.1177C57.2977 10.1298 57.604 10.1298 57.7911 10.1177C57.9782 10.1059 57.8249 10.0963 57.4507 10.0963C57.0765 10.0963 56.9235 10.1059 57.1106 10.1177ZM84.0033 12.5067L84.0192 14.9333H83.3678H82.7164L82.6997 12.5483L82.6834 10.1628L82.6844 12.5628L82.6855 14.9628H83.3657H84.0462L84.0618 12.5667C84.0704 11.2487 84.0569 10.15 84.032 10.1251C84.0072 10.1003 83.9944 11.1719 84.0033 12.5067ZM56.6495 12.5628C56.6495 13.883 56.6573 14.4231 56.6668 13.7628C56.6764 13.1029 56.6764 12.0231 56.6668 11.3628C56.6573 10.7029 56.6495 11.243 56.6495 12.5628ZM55.8951 10.4128L56.3214 10.4348L56.3427 10.832L56.364 11.2295L56.3601 10.8149L56.3562 10.4L55.9125 10.3954L55.4687 10.3911L55.8951 10.4128ZM57.4336 10.4128L57.86 10.4348L57.8809 10.832L57.9022 11.2295L57.8983 10.8149L57.8944 10.4L57.4507 10.3954L57.0069 10.3911L57.4336 10.4128ZM82.2027 10.8149C82.2031 11.0755 82.2134 11.1747 82.2258 11.0354C82.2382 10.896 82.2382 10.6827 82.2254 10.5614C82.2126 10.4402 82.2027 10.5539 82.2027 10.8149ZM80.6304 13.4535L80.6464 16.0565L79.6098 16.0747L78.5732 16.0931L79.6236 16.091L80.6737 16.0889L80.689 13.5147C80.6975 12.0988 80.6844 10.9202 80.6595 10.8953C80.6347 10.8707 80.6219 12.0217 80.6304 13.4535ZM69.6648 12.326C69.6648 13.1243 69.673 13.451 69.6833 13.0517C69.6936 12.6524 69.6936 11.9993 69.6833 11.6C69.673 11.2007 69.6648 11.5275 69.6648 12.326ZM63.1456 11.1225C63.2024 11.1371 63.2958 11.1371 63.3526 11.1225C63.4097 11.1075 63.3629 11.0951 63.2493 11.0951C63.1353 11.0951 63.0888 11.1075 63.1456 11.1225ZM63.7963 11.1225C63.8535 11.1371 63.9465 11.1371 64.0036 11.1225C64.0604 11.1075 64.0139 11.0951 63.9 11.0951C63.786 11.0951 63.7395 11.1075 63.7963 11.1225ZM64.9621 11.1147C65.1265 11.1459 65.1382 11.1669 65.1592 11.4706L65.1819 11.7931L65.1769 11.4521L65.1719 11.1111L64.9799 11.0962C64.7953 11.0819 64.7946 11.083 64.9621 11.1147ZM65.4623 11.163C65.4453 11.2078 65.4414 11.3746 65.4538 11.5335L65.4762 11.8222L65.4868 11.4855C65.4968 11.1666 65.5063 11.1474 65.6601 11.1239L65.823 11.0994L65.6583 11.0905C65.5663 11.0855 65.4801 11.1175 65.4623 11.163ZM68.5121 11.1147C68.6765 11.1459 68.6882 11.1669 68.7091 11.4706L68.7319 11.7931L68.7269 11.4521L68.7219 11.1111L68.5299 11.0962C68.3453 11.0819 68.3446 11.083 68.5121 11.1147ZM69.0123 11.163C68.9953 11.2078 68.9914 11.3746 69.0038 11.5335L69.0262 11.8222L69.0368 11.4855C69.0468 11.1666 69.0563 11.1474 69.2101 11.1239L69.373 11.0994L69.2083 11.0905C69.1163 11.0855 69.0301 11.1175 69.0123 11.163ZM70.1863 11.1225C70.2435 11.1371 70.3365 11.1371 70.3936 11.1225C70.4504 11.1075 70.4039 11.0951 70.29 11.0951C70.176 11.0951 70.1295 11.1075 70.1863 11.1225ZM70.8374 11.1225C70.8942 11.1371 70.9875 11.1371 71.0443 11.1225C71.1011 11.1075 71.0546 11.0951 70.9407 11.0951C70.8267 11.0951 70.7802 11.1075 70.8374 11.1225ZM73.6273 11.163C73.6103 11.2078 73.6064 11.3746 73.6188 11.5335L73.6412 11.8222L73.6518 11.4851C73.6625 11.152 73.6646 11.1481 73.8549 11.1243L74.0469 11.1004L73.8527 11.0908C73.7352 11.0851 73.6465 11.1136 73.6273 11.163ZM74.3874 11.1225C74.4442 11.1371 74.5375 11.1371 74.5943 11.1225C74.6511 11.1075 74.6046 11.0951 74.4907 11.0951C74.3767 11.0951 74.3302 11.1075 74.3874 11.1225ZM75.4524 11.1225C75.5092 11.1371 75.6025 11.1371 75.6593 11.1225C75.7161 11.1075 75.6696 11.0951 75.5557 11.0951C75.4417 11.0951 75.3952 11.1075 75.4524 11.1225ZM76.2039 11.1147C76.3683 11.1459 76.3796 11.1669 76.4009 11.4706L76.4233 11.7931L76.4187 11.4521L76.4137 11.1111L76.2213 11.0962C76.0371 11.0819 76.0363 11.083 76.2039 11.1147ZM56.347 11.9406C56.347 12.2016 56.3576 12.3008 56.3701 12.1614C56.3825 12.022 56.3825 11.8087 56.3697 11.6875C56.3569 11.5659 56.3466 11.68 56.347 11.9406ZM57.8852 11.9406C57.8856 12.2016 57.8959 12.3008 57.9083 12.1614C57.9207 12.022 57.9207 11.8087 57.9079 11.6875C57.8951 11.5659 57.8852 11.68 57.8852 11.9406ZM82.2027 11.9406C82.2031 12.2016 82.2134 12.3008 82.2258 12.1614C82.2382 12.022 82.2382 11.8087 82.2254 11.6875C82.2126 11.5659 82.2027 11.68 82.2027 11.9406ZM65.1609 12.4149C65.1613 12.6105 65.1723 12.6834 65.1854 12.5767C65.1986 12.47 65.1982 12.31 65.1847 12.2211C65.1712 12.1323 65.1606 12.2194 65.1609 12.4149ZM65.4566 12.4149C65.457 12.6105 65.468 12.6834 65.4811 12.5767C65.4943 12.47 65.4939 12.31 65.4804 12.2211C65.4669 12.1323 65.4563 12.2194 65.4566 12.4149ZM68.7109 12.4149C68.7113 12.6105 68.7223 12.6834 68.7354 12.5767C68.7486 12.47 68.7482 12.31 68.7347 12.2211C68.7212 12.1323 68.7106 12.2194 68.7109 12.4149ZM69.0066 12.4149C69.007 12.6105 69.018 12.6834 69.0311 12.5767C69.0443 12.47 69.0439 12.31 69.0304 12.2211C69.0169 12.1323 69.0063 12.2194 69.0066 12.4149ZM73.6216 12.4149C73.622 12.6105 73.633 12.6834 73.6461 12.5767C73.6593 12.47 73.6589 12.31 73.6454 12.2211C73.6319 12.1323 73.6213 12.2194 73.6216 12.4149ZM76.4024 12.4149C76.4027 12.6105 76.4137 12.6834 76.4269 12.5767C76.4403 12.47 76.44 12.31 76.4265 12.2211C76.413 12.1323 76.402 12.2194 76.4024 12.4149ZM55.8951 12.6649L56.3214 12.6866L56.3427 13.0841L56.364 13.4816L56.3601 13.0667L56.3562 12.6517L55.9125 12.6475L55.4687 12.6428L55.8951 12.6649ZM57.4336 12.6649L57.86 12.6866L57.8809 13.0841L57.9022 13.4816L57.8983 13.0667L57.8944 12.6517L57.4507 12.6475L57.0069 12.6428L57.4336 12.6649ZM82.2023 13.0371C82.2023 13.2814 82.2126 13.3813 82.2254 13.2594C82.2382 13.1371 82.2382 12.9369 82.2254 12.8149C82.2126 12.6926 82.2023 12.7925 82.2023 13.0371ZM65.1595 13.3038C65.1599 13.4667 65.1712 13.5264 65.1851 13.4361C65.1986 13.3461 65.1982 13.2128 65.184 13.1399C65.1702 13.067 65.1588 13.1406 65.1595 13.3038ZM65.4552 13.3038C65.4556 13.4667 65.4673 13.5264 65.4808 13.4361C65.4943 13.3461 65.4939 13.2128 65.4801 13.1399C65.4659 13.067 65.4549 13.1406 65.4552 13.3038ZM68.7095 13.3038C68.7099 13.4667 68.7212 13.5264 68.7351 13.4361C68.7486 13.3461 68.7482 13.2128 68.734 13.1399C68.7202 13.067 68.7088 13.1406 68.7095 13.3038ZM69.0052 13.3038C69.0056 13.4667 69.0173 13.5264 69.0308 13.4361C69.0443 13.3461 69.0439 13.2128 69.0301 13.1399C69.0159 13.067 69.0049 13.1406 69.0052 13.3038ZM73.6202 13.3038C73.6206 13.4667 73.6323 13.5264 73.6458 13.4361C73.6593 13.3461 73.6589 13.2128 73.6451 13.1399C73.6309 13.067 73.6199 13.1406 73.6202 13.3038ZM76.4009 13.3038C76.4017 13.4667 76.413 13.5264 76.4265 13.4361C76.4403 13.3461 76.44 13.2128 76.4258 13.1399C76.4116 13.067 76.4006 13.1406 76.4009 13.3038ZM56.347 14.2517C56.347 14.5127 56.3576 14.6119 56.3701 14.4725C56.3825 14.3331 56.3825 14.1198 56.3697 13.9986C56.3569 13.877 56.3466 13.9911 56.347 14.2517ZM57.8852 14.2517C57.8856 14.5127 57.8959 14.6119 57.9083 14.4725C57.9207 14.3331 57.9207 14.1198 57.9079 13.9986C57.8951 13.877 57.8852 13.9911 57.8852 14.2517ZM82.2023 14.2222C82.2023 14.4668 82.2126 14.5667 82.2254 14.4444C82.2382 14.3221 82.2382 14.1223 82.2254 14C82.2126 13.8777 82.2023 13.9779 82.2023 14.2222ZM65.162 14.2517C65.162 14.48 65.173 14.566 65.1858 14.443C65.1986 14.32 65.1982 14.1333 65.1851 14.0284C65.1719 13.9232 65.1616 14.0238 65.162 14.2517ZM65.4577 14.2517C65.4581 14.48 65.4687 14.566 65.4815 14.443C65.4943 14.32 65.4939 14.1333 65.4811 14.0284C65.468 13.9232 65.4574 14.0238 65.4577 14.2517ZM68.712 14.2517C68.712 14.48 68.723 14.566 68.7358 14.443C68.7486 14.32 68.7482 14.1333 68.7351 14.0284C68.7219 13.9232 68.7116 14.0238 68.712 14.2517ZM69.0077 14.2517C69.0081 14.48 69.0187 14.566 69.0315 14.443C69.0443 14.32 69.0439 14.1333 69.0311 14.0284C69.018 13.9232 69.0074 14.0238 69.0077 14.2517ZM73.6227 14.2517C73.6231 14.48 73.6337 14.566 73.6465 14.443C73.6593 14.32 73.6589 14.1333 73.6461 14.0284C73.633 13.9232 73.6224 14.0238 73.6227 14.2517ZM76.4034 14.2517C76.4038 14.48 76.4144 14.566 76.4272 14.443C76.44 14.32 76.44 14.1333 76.4269 14.0284C76.4137 13.9232 76.4034 14.0238 76.4034 14.2517ZM69.6659 15.2544C69.6684 15.9356 69.684 16.0835 69.7575 16.1035C69.8214 16.1209 69.826 16.1131 69.7741 16.0761C69.7252 16.0416 69.6957 15.7675 69.6826 15.2274L69.663 14.4295L69.6659 15.2544ZM70.0795 15.5111L70.083 16.0889L70.7781 16.0917L71.4735 16.0949L70.7951 16.075L70.1167 16.0555L70.0965 15.4944L70.0763 14.933L70.0795 15.5111ZM81.7572 15.0962C82.2229 15.1061 82.9684 15.1061 83.4136 15.0962C83.8591 15.0862 83.4782 15.078 82.5669 15.078C81.656 15.078 81.2914 15.0862 81.7572 15.0962ZM55.9011 16.1035C56.3669 16.1138 57.1124 16.1134 57.5579 16.1035C58.0034 16.0935 57.6225 16.0853 56.7112 16.0853C55.7999 16.0853 55.4357 16.0935 55.9011 16.1035ZM59.155 16.1035C59.4902 16.1141 60.0227 16.1141 60.3383 16.1035C60.6538 16.0928 60.3794 16.0843 59.7287 16.0843C59.078 16.0843 58.8196 16.0928 59.155 16.1035ZM61.4299 16.1024C61.5516 16.1152 61.7515 16.1152 61.8736 16.1024C61.9954 16.0896 61.8956 16.0793 61.6518 16.0793C61.4075 16.0793 61.3078 16.0896 61.4299 16.1024ZM63.5929 16.1035C64.0913 16.1134 64.8901 16.1134 65.3679 16.1035C65.8461 16.0935 65.4382 16.0853 64.4619 16.0857C63.4857 16.0857 63.0948 16.0935 63.5929 16.1035ZM68.3524 16.1031C68.5395 16.1148 68.8455 16.1148 69.0326 16.1031C69.2196 16.0914 69.0666 16.0818 68.6925 16.0818C68.3183 16.0818 68.1653 16.0914 68.3524 16.1031ZM74.1506 16.1035C74.6306 16.1134 75.4162 16.1134 75.8961 16.1035C76.3761 16.0935 75.9831 16.0853 75.0232 16.0853C74.0633 16.0853 73.6706 16.0935 74.1506 16.1035ZM77.6104 16.102C77.7155 16.1152 77.9019 16.1152 78.0247 16.1024C78.1475 16.0896 78.0616 16.0789 77.8337 16.0786C77.6058 16.0786 77.5053 16.0889 77.6104 16.102ZM81.7572 16.1035C82.2229 16.1138 82.9684 16.1134 83.4136 16.1035C83.8591 16.0935 83.4782 16.0853 82.5669 16.0853C81.656 16.0853 81.2914 16.0935 81.7572 16.1035ZM85.5993 16.1035C86.2582 16.1131 87.3367 16.1131 87.9956 16.1035C88.6545 16.0942 88.1156 16.0864 86.7975 16.0864C85.4794 16.0864 84.9405 16.0942 85.5993 16.1035ZM64.7087 17.7038C67.4478 17.7123 71.9475 17.7123 74.7079 17.7038C77.4684 17.6953 75.2273 17.6882 69.728 17.6882C64.2283 17.6882 61.9698 17.6953 64.7087 17.7038ZM83.2606 23.7764L83.2475 24.7083L82.2563 24.726L81.2655 24.7438L82.2584 24.757C83.4303 24.7726 83.3156 24.8867 83.2918 23.7308L83.2737 22.8444L83.2606 23.7764ZM139.006 24.4981C138.989 24.544 138.985 24.6706 138.998 24.7794C139.02 24.9607 139.024 24.9564 139.032 24.7292C139.042 24.4818 139.043 24.4807 139.293 24.4583L139.544 24.4356L139.291 24.4252C139.121 24.4181 139.028 24.442 139.006 24.4981ZM78.2569 24.726C78.2721 24.7502 78.7205 24.7705 79.2537 24.7705C79.7869 24.7705 80.2353 24.7502 80.2506 24.726C80.2655 24.7015 79.8171 24.6816 79.2537 24.6816C78.6903 24.6816 78.242 24.7015 78.2569 24.726ZM138.982 25.6121C138.966 25.8307 138.974 25.9879 139.001 25.9616C139.026 25.9353 139.04 25.7564 139.029 25.5641L139.011 25.2149L138.982 25.6121ZM97.1198 25.9705C97.1042 26.011 97.0985 28.5244 97.1067 31.5556L97.1219 37.0667L97.1517 31.4816C97.1681 28.4096 97.1738 25.8962 97.1645 25.8962C97.1553 25.8962 97.1351 25.9296 97.1198 25.9705ZM34.3452 31.4962C34.3452 34.56 34.3523 35.8048 34.3611 34.262C34.3696 32.7196 34.3696 30.213 34.3611 28.6919C34.3523 27.1705 34.3452 28.4327 34.3452 31.4962ZM42.5652 26.9333C42.5648 27.4873 42.5737 27.722 42.5847 27.4549C42.5957 27.1876 42.5957 26.7342 42.5851 26.4473C42.5741 26.1607 42.5652 26.3794 42.5652 26.9333ZM116.227 26.9628C116.227 27.5008 116.236 27.7209 116.247 27.4517C116.258 27.1829 116.258 26.7431 116.247 26.474C116.236 26.2052 116.227 26.4252 116.227 26.9628ZM118.184 31.526C118.184 34.5732 118.192 35.8201 118.2 34.2962C118.209 32.7726 118.209 30.2791 118.2 28.7556C118.192 27.232 118.184 28.4786 118.184 31.526ZM139.176 26.5316C139.265 26.5451 139.399 26.5447 139.471 26.5305C139.544 26.5166 139.471 26.5052 139.308 26.5059C139.145 26.5063 139.086 26.5177 139.176 26.5316ZM102.772 26.874C102.629 27.0208 102.524 27.1406 102.541 27.1406C102.557 27.1406 102.688 27.0208 102.832 26.874C102.976 26.7275 103.08 26.6073 103.063 26.6073C103.047 26.6073 102.916 26.7275 102.772 26.874ZM120.548 29.3628C120.548 30.1778 120.557 30.5195 120.566 30.122C120.577 29.7244 120.577 29.0578 120.567 28.6404C120.557 28.2229 120.548 28.5483 120.548 29.3628ZM100.846 28.9333L100.672 29.126L100.864 28.9518C100.97 28.8562 101.057 28.7694 101.057 28.7591C101.057 28.7136 101.008 28.7538 100.846 28.9333ZM128.825 29.0962C128.825 29.3081 128.836 29.3948 128.849 29.2889C128.862 29.1829 128.862 29.0098 128.849 28.9038C128.836 28.7979 128.825 28.8843 128.825 29.0962ZM13.7857 33.1556C13.7857 35.3013 13.7988 37.0439 13.8144 37.0279C13.8538 36.9888 13.8563 29.3248 13.8169 29.2857C13.7999 29.2683 13.7857 31.0098 13.7857 33.1556ZM9.37268 31.2295C9.37268 31.8002 9.38156 32.0334 9.39221 31.7483C9.40321 31.4631 9.40321 30.9963 9.39221 30.7111C9.38156 30.426 9.37268 30.6592 9.37268 31.2295ZM120.549 32.7854C120.534 32.8263 120.528 33.8066 120.537 34.9632L120.554 37.0667L120.568 34.9198L120.582 32.7726L121.898 32.7556L123.214 32.7385L121.896 32.7246C120.883 32.7143 120.571 32.7282 120.549 32.7854ZM30.29 36.1333L30.0862 36.3556L30.3081 36.1515C30.4302 36.0391 30.53 35.9388 30.53 35.9292C30.53 35.8837 30.4799 35.9264 30.29 36.1333Z" fill="#7D00FF"/>
</svg>
