<svg width="87" height="50" viewBox="0 0 87 50" fill="none" xmlns="http://www.w3.org/2000/svg">
<path d="M1.80652 25.0002C1.80652 11.7116 21.1576 1.81631 43.495 1.81631C65.8324 1.81631 85.1935 11.7116 85.1935 25.0002C85.1935 38.2929 65.8324 48.1637 43.495 48.1637C21.1576 48.1637 1.80652 38.2929 1.80652 25.0002Z" fill="white"/>
<path fill-rule="evenodd" clip-rule="evenodd" d="M43.495 0.719452C67.1165 0.719452 86.2884 11.5981 86.2884 24.9983C86.2884 38.4004 67.1165 49.2751 43.495 49.2751C19.8835 49.2751 0.711548 38.4004 0.711548 24.9983C0.711548 11.5981 19.8835 0.719452 43.495 0.719452ZM43.495 2.90939C21.078 2.90939 2.87163 12.8249 2.87163 24.9983C2.87163 37.1767 21.078 47.0689 43.495 47.0689C65.912 47.0689 84.1184 37.1767 84.1184 24.9983C84.1184 12.8249 65.912 2.90939 43.495 2.90939ZM35.9796 27.3291H27.5582C27.6578 29.44 28.8224 30.4184 30.5644 30.4184C31.8585 30.4184 32.7444 29.6762 32.9734 28.929H35.7307C35.0239 31.4829 32.9733 32.6651 30.445 32.6651C26.8614 32.6651 24.6317 30.1537 24.6317 26.5667C24.6317 23.0922 26.9908 20.4461 30.445 20.4461C34.3271 20.4461 36.1985 23.7644 35.9796 27.3291ZM30.3653 22.634C28.6134 22.634 27.7175 23.8212 27.5781 25.34H33.043C32.834 23.7188 32.1671 22.634 30.3653 22.634ZM72.442 27.3291H64.0207C64.1103 29.44 65.2849 30.4184 67.017 30.4184C68.321 30.4184 69.2069 29.6762 69.4359 28.929H72.1932C71.4864 31.4829 69.4359 32.6651 66.9075 32.6651C63.314 32.6651 61.0942 30.1537 61.0942 26.5667C61.0942 23.0922 63.4533 20.4461 66.9075 20.4461C70.7896 20.4461 72.661 23.7644 72.442 27.3291ZM66.8179 22.634C65.0759 22.634 64.18 23.8212 64.0307 25.34H69.5055C69.2965 23.7188 68.6295 22.634 66.8179 22.634ZM9.89935 32.3508H13.025V25.4454H19.774V32.3508H22.8996V16.3126H19.774V22.8793H13.025V16.3126H9.89935V32.3508ZM37.7016 32.3508H40.6481V26.0811C40.6481 23.7269 41.4643 22.7627 43.1566 22.7627C44.6099 22.7627 45.2669 23.7046 45.2669 25.6096V32.3508H48.2034V25.2213C48.2034 22.3521 47.3672 20.4461 44.0325 20.4461C42.7186 20.4461 41.3449 21.0746 40.5585 22.3744H40.4888V20.7604H37.7016V32.3508ZM50.7119 32.3508H53.6484V26.074L57.9884 32.3508H61.6417L56.8636 25.8469L61.0942 20.7604H57.5903L53.6484 25.7577V16.3126H50.7119V32.3508ZM74.1641 32.3508H77.1006V16.3126H74.1641V32.3508Z" fill="#7D00FF"/>
</svg>
