<svg width="89" height="53" viewBox="0 0 89 53" fill="none" xmlns="http://www.w3.org/2000/svg">
<path fill-rule="evenodd" clip-rule="evenodd" d="M43.2458 19.1797C42.7909 19.6269 41.7638 20.6412 40.9633 21.4338C40.1628 22.2264 38.6721 23.7013 37.6508 24.7114C36.6294 25.7215 35.0555 27.2784 34.1534 28.171C33.2511 29.0639 31.3064 30.9869 29.8317 32.4444C27.0301 35.213 24.4358 37.7784 22.9831 39.2165C20.3929 41.7811 16.9596 45.1766 16.2794 45.8464C15.8504 46.2689 14.3374 47.7657 12.9172 49.1727C11.497 50.5794 10.0548 52.0049 9.71203 52.3401C9.36951 52.6751 9.10053 52.9609 9.11467 52.975C9.14846 53.009 78.6908 53.0079 78.6908 52.9739C78.6908 52.9534 44.9293 19.1978 44.2336 18.523L44.0729 18.3668L43.2458 19.1797Z" fill="#7D00FF"/>
<path fill-rule="evenodd" clip-rule="evenodd" d="M41.8012 2.41814C37.5265 6.65928 36.3274 7.85621 36.3274 7.88293C36.3274 7.98231 38.1795 9.74943 38.2396 9.70725C38.2751 9.68208 38.7 9.2806 39.1832 8.81508C39.6666 8.34934 40.2611 7.77693 40.5043 7.54262C40.7476 7.30832 41.1866 6.88365 41.4801 6.59878C42.263 5.83932 42.3867 5.74127 42.2195 6.01334C42.1806 6.0765 42.0554 6.34305 41.941 6.60584C41.8266 6.86841 41.7193 7.10029 41.7023 7.12105C41.6855 7.14181 41.6031 7.31605 41.5194 7.5084C41.3693 7.85312 41.1325 8.35971 40.5818 9.51424C40.4274 9.83821 40.3013 10.1147 40.3018 10.1286C40.3022 10.1427 40.1765 10.4113 40.0228 10.7253C39.8691 11.0395 39.749 11.3138 39.7561 11.3346C39.7629 11.3553 40.039 11.6446 40.3695 11.977L40.9702 12.5816L41.0998 12.5275C41.1712 12.4977 41.4117 12.3831 41.6345 12.2729C41.8575 12.1625 42.0565 12.0724 42.0768 12.0724C42.1159 12.0724 42.3944 11.9441 42.9275 11.6806C43.1061 11.5925 43.2724 11.5203 43.2967 11.5203C43.3212 11.5203 43.5604 11.413 43.828 11.282C44.0959 11.1509 44.4267 10.9996 44.5632 10.9455C44.6995 10.8914 44.9561 10.7748 45.1332 10.6864C45.3105 10.5979 45.5802 10.476 45.7328 10.4155C45.8853 10.355 46.1126 10.2536 46.238 10.1902C46.4085 10.1043 46.4522 10.0924 46.4116 10.1432C46.3398 10.2324 44.2777 12.2877 43.2879 13.2559C42.8305 13.7035 42.5108 14.0442 42.5108 14.0844C42.5108 14.165 44.3963 16.0631 44.4561 16.0428C44.5135 16.0231 52.4115 8.17068 52.4115 8.13336C52.4115 8.12121 51.8444 7.53666 51.1509 6.83419L49.8904 5.55687L49.6696 5.66177C49.5481 5.71963 49.3226 5.8274 49.1687 5.90138C49.0148 5.97558 48.8717 6.03609 48.8505 6.03609C48.8295 6.03609 48.5548 6.16042 48.2401 6.31213C47.9254 6.46407 47.6514 6.58818 47.6311 6.58818C47.6107 6.58818 47.3349 6.71251 47.0182 6.86422C46.7016 7.01615 46.4275 7.14026 46.4089 7.14026C46.3904 7.14026 46.1724 7.23699 45.9244 7.35514C45.403 7.6038 45.2648 7.66585 45.0873 7.73122C45.0164 7.75728 44.8342 7.84009 44.6822 7.91539C44.5305 7.99048 44.3452 8.07749 44.2708 8.1084L44.1352 8.16516L44.6524 7.14667C44.9371 6.58641 45.4594 5.55665 45.8134 4.85837C46.1674 4.15987 46.5629 3.38827 46.6923 3.14359C46.8217 2.8989 46.9275 2.6699 46.9275 2.63478C46.9275 2.55308 44.3806 0 44.2993 0C44.266 0 43.1419 1.08828 41.8012 2.41814ZM35.5503 8.52159C35.34 8.72012 34.886 9.16223 34.5413 9.50408C34.1968 9.84571 33.8986 10.1374 33.8788 10.152C33.8591 10.1666 33.7798 10.2461 33.7028 10.3289L33.5625 10.4791L33.6246 10.7328C33.6588 10.8724 33.8088 11.409 33.9583 11.9251C34.1075 12.4412 34.2299 12.8884 34.2301 12.9189C34.2306 12.9491 34.3145 13.2556 34.4169 13.5997C34.5194 13.944 34.6413 14.3538 34.6881 14.5106C34.7347 14.6676 34.7683 14.796 34.7628 14.796C34.757 14.796 34.5892 14.731 34.3898 14.6515C33.6793 14.3686 33.347 14.2439 33.3046 14.2439C33.281 14.2439 33.0281 14.1513 32.7426 14.038C32.457 13.9248 32.0814 13.7861 31.9076 13.7298C31.7338 13.6732 31.3981 13.5507 31.1616 13.457C30.9251 13.3634 30.7131 13.287 30.6903 13.287C30.6678 13.287 30.4072 13.5253 30.1113 13.8166C29.8156 14.1081 29.3209 14.5952 29.0122 14.8995C28.7035 15.2036 28.4511 15.4664 28.4511 15.4832C28.4511 15.5 28.7284 15.6029 29.0674 15.7118C29.4066 15.8206 29.9821 16.0088 30.3465 16.1296C30.7109 16.2506 31.1247 16.3811 31.2663 16.42C31.4081 16.4586 31.88 16.6072 32.3152 16.7503C33.5647 17.1611 34.7332 17.5385 35.1031 17.6507C35.4988 17.7708 35.3151 17.6076 37.5124 19.7912C38.2149 20.4893 38.806 21.0546 38.8261 21.0474C38.8462 21.0403 39.083 20.821 39.3524 20.5598C40.4789 19.4682 40.8914 19.0548 40.8914 19.017C40.8914 18.9949 40.7547 18.8434 40.5877 18.6802C40.4206 18.517 39.8948 17.9813 39.4191 17.4901C38.9434 16.9988 38.3864 16.4248 38.1815 16.2148L37.809 15.8328L37.6718 15.25C37.5963 14.9293 37.4123 14.1619 37.2628 13.5445C37.1133 12.9272 36.8658 11.9001 36.713 11.2626C36.2218 9.21501 35.9871 8.26409 35.9592 8.21176C35.9396 8.17443 35.8294 8.25813 35.5503 8.52159ZM51.4347 13.0739C49.8162 14.6774 48.0248 16.4522 47.4539 17.018C46.5505 17.9137 46.422 18.0548 46.4604 18.1096C46.6636 18.3998 51.9455 23.6349 52.0062 23.6064C52.1235 23.5516 53.6261 22.0511 53.6261 21.989C53.6261 21.9568 52.864 21.1664 51.9323 20.2325L50.2382 18.5345L50.819 17.9625C51.1386 17.648 51.5197 17.2764 51.6664 17.1364L51.9327 16.8822L53.2646 18.2328C53.9973 18.9757 54.6181 19.5788 54.6446 19.5728C54.7234 19.5554 56.313 17.9515 56.3127 17.8896C56.3125 17.8581 55.7105 17.2262 54.9747 16.4856L53.6369 15.1387L54.253 14.5252L54.8691 13.912L56.5755 15.6415C57.5141 16.5929 58.3036 17.3716 58.3301 17.3718C58.4003 17.3727 59.9636 15.7957 59.9499 15.7376C59.9353 15.6758 54.4591 10.1584 54.4122 10.1584C54.3935 10.1584 53.0534 11.4704 51.4347 13.0739ZM28.1013 17.4663C28.0609 17.4718 27.8372 17.4961 27.6044 17.5202C26.9569 17.5871 26.4006 17.7441 25.9035 18.0003C25.788 18.0597 25.6721 18.1085 25.646 18.1083C25.3689 18.1072 23.7398 19.6307 23.7398 19.8908C23.7398 19.9017 23.6815 20.0015 23.6104 20.1128C23.159 20.8183 22.8242 21.862 22.7476 22.8017C22.6771 23.6658 22.7944 24.365 23.1808 25.3846C23.4911 26.203 24.4065 27.3045 25.2934 27.9268C25.6284 28.1618 26.2476 28.5244 26.3143 28.5248C26.3456 28.5248 26.415 28.5476 26.468 28.5754C27.3884 29.0557 28.9298 29.1103 30.1065 28.7044C30.3397 28.6238 30.5835 28.544 30.6484 28.527C30.7723 28.4946 31.3745 28.1819 31.469 28.1011C31.4993 28.075 31.5969 28.0132 31.6856 27.9639C32.0631 27.7539 32.8715 27.0132 33.2129 26.5647C33.2863 26.4684 33.402 26.3167 33.4702 26.2275C34.6808 24.6448 34.6241 21.9256 33.3406 20.0147C32.9749 19.4702 32.2446 18.6606 32.1189 18.6606C32.0944 18.6606 32.0454 18.627 32.0103 18.5857C31.7159 18.2421 30.3213 17.633 29.6471 17.5535C28.7671 17.45 28.3764 17.4279 28.1013 17.4663ZM60.5457 18.6513C59.9406 19.2535 58.6565 20.5249 57.6914 21.4762C54.7358 24.3908 53.7365 25.3865 53.7365 25.4179C53.7365 25.4462 54.1391 25.862 55.2713 27.0039C55.5385 27.2736 55.7823 27.494 55.813 27.494C55.8437 27.494 56.7266 26.6387 57.7747 25.5935C58.823 24.548 59.7743 23.6031 59.8889 23.4931L60.0974 23.2932L60.0687 23.4154C59.7823 24.637 59.6255 25.3342 59.6255 25.3872C59.6255 25.4232 59.5014 25.9826 59.3497 26.6298C59.1982 27.2771 59.0738 27.8433 59.0736 27.8879C59.0736 27.9328 58.9575 28.4652 58.8157 29.0714C58.6741 29.6776 58.5582 30.2052 58.5582 30.2434C58.5582 30.3361 60.644 32.4537 60.6879 32.406C60.7222 32.3687 61.0868 31.2868 61.5492 29.8496C61.7022 29.3737 61.9531 28.6037 62.1068 28.1382C62.2603 27.6724 62.3859 27.2608 62.3859 27.2232C62.3859 27.1724 62.4025 27.1618 62.4504 27.1819C63.8609 27.7729 65.7029 27.21 66.5756 25.9212C67.2734 24.8908 67.3079 23.3414 66.6518 22.4921C66.4354 22.212 61.7808 17.5564 61.7172 17.5564C61.6722 17.5564 61.2336 17.9665 60.5457 18.6513ZM28.2669 20.064C29.0226 20.2342 29.629 20.6682 30.5338 21.6865C30.7444 21.9234 30.9169 22.1279 30.9169 22.1407C30.9169 22.1535 30.9889 22.2586 31.0768 22.3744C31.8961 23.4516 31.8999 24.4575 31.0878 25.3556C30.0194 26.5378 28.8148 26.5713 27.3652 25.4599C26.875 25.084 26.0044 24.2095 25.9371 24.0251C25.9243 23.9898 25.8545 23.8681 25.7818 23.7548C25.0944 22.6798 25.3179 21.4226 26.3487 20.5692C26.5356 20.4144 26.7248 20.2793 26.7692 20.2689C26.8136 20.2585 26.9498 20.2077 27.0722 20.1563C27.4396 20.0013 27.8482 19.9697 28.2669 20.064ZM63.1264 22.148C64.2423 23.2754 64.3321 23.4712 64.0278 24.1141C63.5617 25.0999 62.4226 25.1957 61.5874 24.3197C61.4092 24.1329 61.1356 23.8471 60.9794 23.685C60.8233 23.5229 60.6232 23.3091 60.5347 23.21L60.3739 23.03L61.2727 22.1334C61.7672 21.6403 62.1834 21.2371 62.1982 21.2371C62.2128 21.2371 62.6306 21.6469 63.1264 22.148ZM40.0977 22.2767L39.9895 22.3964L40.1092 22.2882C40.2207 22.1875 40.2457 22.1571 40.2174 22.1571C40.211 22.1571 40.1571 22.2109 40.0977 22.2767ZM19.163 25.3426C18.3492 25.5045 17.749 25.8706 16.8731 26.74C16.649 26.9624 15.7422 27.8566 14.858 28.7269C13.9738 29.5974 13.2501 30.3306 13.2501 30.356C13.2501 30.4044 14.1741 31.346 17.4276 34.6133C18.4801 35.6704 19.7376 36.9356 20.2217 37.4252C20.7057 37.9145 21.1147 38.3149 21.1308 38.3149C21.1467 38.3149 21.5288 37.9547 21.9797 37.5144C22.4309 37.074 22.8955 36.6213 23.0121 36.508C23.2941 36.2349 23.3372 36.3139 22.3686 35.3237C21.898 34.8425 21.124 34.0475 20.6483 33.557C20.1728 33.0665 19.6912 32.5741 19.5781 32.4628C19.4649 32.3515 19.3118 32.1922 19.2376 32.1092L19.1031 31.9579L19.5351 32.082C19.7727 32.1503 20.1163 32.2413 20.2985 32.2841C20.4807 32.327 20.9526 32.4506 21.3475 32.5588C21.7421 32.6673 22.2142 32.7918 22.3964 32.836C22.5786 32.8799 23.0174 32.9952 23.3716 33.0921C23.7261 33.1889 24.1896 33.3121 24.4023 33.3658C24.6147 33.4194 24.9131 33.495 25.0648 33.5332C25.2167 33.5716 25.4521 33.635 25.5882 33.674L25.8357 33.7452L26.2867 33.3156C26.9918 32.6441 27.9454 31.6872 27.9273 31.6691C27.9021 31.6441 26.9013 31.293 26.7763 31.2654C26.7155 31.2519 26.3428 31.1278 25.9481 30.9894C25.5533 30.8509 25.1807 30.7261 25.12 30.7122C25.0593 30.6983 24.643 30.5647 24.1951 30.4154C23.7473 30.2661 23.3522 30.144 23.3175 30.144C23.2648 30.144 22.7476 30.0018 22.7184 29.9793C22.7131 29.9753 22.7427 29.8161 22.784 29.6255C22.9914 28.6688 22.8717 27.4878 22.5018 26.8401C21.849 25.6975 20.4758 25.0818 19.163 25.3426ZM68.3036 27.7976C67.3205 28.7744 65.537 30.5457 64.3405 31.734C63.1441 32.9223 62.1651 33.9048 62.1651 33.9172C62.1651 33.947 63.0818 34.8796 65.5582 37.3684L67.6078 39.4284L68.5857 38.4576C69.1236 37.9236 69.5595 37.4667 69.5542 37.4422C69.5489 37.4176 68.8149 36.6639 67.9229 35.7676C67.031 34.871 66.2905 34.1193 66.2773 34.0972C66.2545 34.0592 66.8309 33.4784 70.677 29.663C71.5225 28.8243 72.2098 28.1172 72.2045 28.0916C72.1901 28.0235 70.1905 26.0217 70.1368 26.0217C70.1118 26.0217 69.287 26.8209 68.3036 27.7976ZM19.7321 28.2947C20.0119 28.4202 20.3592 28.7755 20.5028 29.0829C20.834 29.7924 20.6094 30.1977 19.1641 31.4984L18.8763 31.7574L18.2624 31.1265C17.9247 30.7793 17.5105 30.3587 17.342 30.1913L17.0357 29.8869L17.1141 29.777C17.1571 29.7165 17.2287 29.6414 17.2731 29.6102C17.3175 29.5793 17.478 29.4387 17.6299 29.298C18.3666 28.6158 18.5075 28.4939 18.6712 28.3983C19.0422 28.1812 19.401 28.1461 19.7321 28.2947ZM10.6078 32.8596C9.82407 33.6244 8.58276 34.8359 7.84892 35.5514C7.11509 36.2671 6.51464 36.8735 6.51464 36.8987C6.51464 36.9459 14.3653 44.8295 14.4121 44.8295C14.4263 44.8295 14.8041 44.4689 15.252 44.0283C15.6996 43.5878 16.6951 42.615 17.4643 41.8668C19.4759 39.9102 19.9856 39.4065 19.9856 39.3758C19.9856 39.3502 19.744 39.0949 18.8576 38.1835C18.6522 37.9724 18.4616 37.8001 18.4342 37.801C18.383 37.8023 18.1434 38.0309 16.1099 40.0184L14.913 41.1884L14.216 40.4786C13.8325 40.0882 13.4626 39.7108 13.3937 39.6401L13.2684 39.5116L13.6549 39.1446C13.8676 38.9427 14.381 38.4441 14.796 38.0362C15.2109 37.6285 15.6471 37.2059 15.7652 37.0972C16.0426 36.8421 16.0697 36.7905 15.9907 36.6697C15.8951 36.5237 14.491 35.1128 14.4415 35.1128C14.4172 35.1128 13.7733 35.7214 13.0103 36.4654L11.6232 37.818L11.0612 37.2476C10.752 36.9338 10.4389 36.6087 10.3653 36.5252L10.2317 36.3733L10.4022 36.2205C10.6447 36.0036 13.5975 33.1186 13.611 33.0855C13.6266 33.0471 12.1009 31.469 12.0483 31.469C12.0395 31.469 11.3913 32.0949 10.6078 32.8596ZM74.822 35.0116C73.6556 36.1706 71.871 37.9426 70.8563 38.9496C69.8413 39.9566 69.011 40.7975 69.011 40.8183C69.011 40.8848 70.9998 42.8473 71.0548 42.8352C71.1427 42.816 78.9854 35.007 78.9854 34.9388C78.9854 34.8869 77.0238 32.9044 76.9723 32.9044C76.956 32.9044 75.9883 33.8527 74.822 35.0116ZM77.586 39.7757C75.8759 41.47 74.0915 43.2375 73.6209 43.7037C73.1503 44.1699 72.7652 44.5709 72.7652 44.5946C72.7652 44.6425 74.629 46.5227 74.6767 46.5227C74.6931 46.5227 74.7783 46.4438 74.8658 46.3478C74.9534 46.2517 76.113 45.0736 77.4427 43.7296C79.8308 41.3163 79.86 41.2884 79.8173 41.466C79.7937 41.5649 79.712 41.9108 79.6358 42.2347C79.5598 42.5587 79.3748 43.3371 79.2248 43.9645C79.0747 44.5921 78.8262 45.6356 78.6725 46.2833C78.5186 46.9312 78.2677 47.9747 78.1149 48.6021L77.8369 49.7431L79.0301 50.9484C79.6864 51.6114 80.2407 52.154 80.2617 52.154C80.2977 52.154 81.0728 51.3899 86.264 46.2382L88.2749 44.2426L87.3304 43.2987L86.3856 42.3549L85.0361 43.6933C84.2941 44.4296 83.2127 45.5026 82.6334 46.0779C81.1825 47.5189 81.1889 47.5129 81.228 47.3824C81.2452 47.3245 81.3605 46.9405 81.4842 46.5291C81.6079 46.1174 81.709 45.7568 81.709 45.7272C81.709 45.6979 81.7602 45.5044 81.8227 45.2977C81.8852 45.0908 82.0107 44.6566 82.1017 44.3327C82.1926 44.0087 82.3424 43.4871 82.4344 43.1733C82.5265 42.8595 82.6509 42.4207 82.7107 42.1978C82.7706 41.9752 82.9331 41.4037 83.0718 40.928C83.4596 39.5984 83.4896 39.4597 83.4112 39.3672C83.2537 39.1815 80.757 36.6955 80.7281 36.6955C80.7102 36.6955 79.2962 38.0815 77.586 39.7757ZM1.77662 41.4894C1.67415 41.5956 1.23248 42.0285 0.795227 42.4509C0.326174 42.9043 0 43.2473 0 43.287C0 43.3486 0.684368 44.0677 2.24479 45.6457C2.5385 45.9428 3.15971 46.5801 3.62545 47.062C4.09097 47.5438 4.71196 48.1803 5.00567 48.4762C5.29916 48.7721 5.92015 49.409 6.38589 49.8913C7.28623 50.8241 7.76964 51.3075 7.80166 51.3071C7.82618 51.3069 8.13667 51.0078 9.84549 49.3392C10.5946 48.608 11.663 47.5661 12.2195 47.024C12.7762 46.482 13.2375 46.022 13.2448 46.0022C13.2521 45.9821 13.0037 45.7069 12.6927 45.3907C12.3818 45.0747 11.966 44.6515 11.7683 44.4504L11.409 44.0851L10.3587 45.1107C9.78101 45.6747 9.01515 46.4193 8.65674 46.7656L8.00527 47.3952L7.26923 46.6377C6.86422 46.221 6.17698 45.5163 5.74171 45.0716C5.30645 44.627 4.68546 43.9917 4.36149 43.66C4.03753 43.3283 3.54065 42.8213 3.25732 42.5335C2.97399 42.2455 2.58951 41.8494 2.40291 41.653C2.00695 41.2363 2.01821 41.2392 1.77662 41.4894Z" fill="#7D00FF"/>
</svg>
