<svg width="134" height="31" viewBox="0 0 134 31" fill="none" xmlns="http://www.w3.org/2000/svg">
<path fill-rule="evenodd" clip-rule="evenodd" d="M127.696 6.4149V10.0288C125.769 9.32202 124.054 8.96465 122.552 8.96465C121.663 8.96465 120.955 9.12467 120.422 9.43405C119.89 9.7461 119.618 10.1302 119.618 10.5836C119.618 11.1864 120.219 11.7224 121.43 12.2025L124.927 13.8561C127.754 15.1657 129.157 16.9046 129.157 19.089C129.157 20.9053 128.413 22.3536 126.911 23.4257C125.421 24.5086 123.414 25.0447 120.916 25.0447C119.763 25.0447 118.729 24.9967 117.809 24.8953C116.889 24.7993 115.833 24.6019 114.661 24.3192V20.5373C116.81 21.2441 118.767 21.6014 120.529 21.6014C122.632 21.6014 123.678 21.0093 123.678 19.8145C123.678 19.2197 123.25 18.7396 122.379 18.3635L118.495 16.7553C117.062 16.1258 115.997 15.3631 115.3 14.4589C114.614 13.5468 114.265 12.5013 114.265 11.3064C114.265 9.63406 114.99 8.28718 116.423 7.263C117.867 6.24682 119.783 5.73743 122.165 5.73743C122.939 5.73743 123.831 5.80408 124.82 5.92678C125.816 6.05747 126.774 6.21749 127.696 6.4149Z" fill="#7D00FF"/>
<path fill-rule="evenodd" clip-rule="evenodd" d="M17.6894 6.4149V10.0288C15.7625 9.32202 14.0496 8.96465 12.5481 8.96465C11.656 8.96465 10.9506 9.12467 10.418 9.43405C9.88554 9.7461 9.61378 10.1302 9.61378 10.5836C9.61378 11.1864 10.2232 11.7224 11.4337 12.2025L14.9308 13.8561C17.7471 15.1657 19.1525 16.9046 19.1525 19.089C19.1525 20.9053 18.4059 22.3536 16.9154 23.4257C15.4139 24.5086 13.4183 25.0447 10.9122 25.0447C9.75926 25.0447 8.72166 24.9967 7.8021 24.8953C6.88254 24.7993 5.8367 24.6019 4.65641 24.3192V20.5373C6.81394 21.2441 8.77111 21.6014 10.5224 21.6014C12.625 21.6014 13.6708 21.0093 13.6708 19.8145C13.6708 19.2197 13.2454 18.7396 12.3834 18.3635L8.49934 16.7553C7.05546 16.1258 5.99042 15.3631 5.30421 14.4589C4.60696 13.5468 4.2666 12.5013 4.2666 11.3064C4.2666 9.63406 4.9858 8.28718 6.42687 7.263C7.85978 6.24682 9.77847 5.73743 12.1611 5.73743C12.9434 5.73743 13.8246 5.80408 14.8237 5.92678C15.8119 6.05747 16.7699 6.21749 17.6894 6.4149Z" fill="#7D00FF"/>
<path fill-rule="evenodd" clip-rule="evenodd" d="M21.697 6.07422H27.3928V24.704H21.697V6.07422Z" fill="#7D00FF"/>
<path fill-rule="evenodd" clip-rule="evenodd" d="M45.7429 6.07422V9.51751H37.2802V13.6488H44.6203V16.7533H37.2802V21.0901H45.9159V24.704H31.7986V6.07422H45.7429Z" fill="#7D00FF"/>
<path fill-rule="evenodd" clip-rule="evenodd" d="M72.3332 6.07422V24.704H67.016V12.4166L61.499 24.8747H58.216L52.91 12.4166V24.704H49.0643V6.07422H56.0173L60.7633 17.4788L65.729 6.07422H72.3332Z" fill="#7D00FF"/>
<path fill-rule="evenodd" clip-rule="evenodd" d="M90.6753 6.07422V9.51751H82.2588V13.6488H89.5988V16.7533H82.2588V21.0901H90.8482V24.704H76.731V6.07422H90.6753Z" fill="#7D00FF"/>
<path fill-rule="evenodd" clip-rule="evenodd" d="M110.661 6.07422V24.704H104.62L97.8398 12.7553V24.704H93.9966V6.07422H100.214L106.818 17.8176V6.07422H110.661Z" fill="#7D00FF"/>
</svg>
