<svg width="147" height="27" viewBox="0 0 147 27" fill="none" xmlns="http://www.w3.org/2000/svg">
<path d="M20.3309 1.07753V1.06448C20.2713 1.06448 20.2118 1.06448 20.1522 1.0695C20.0926 1.07452 20.033 1.06448 19.9734 1.06448V1.07753C9.49241 1.2532 0 9.28982 0 14.0198C0 18.5521 9.49241 26.7804 19.9734 26.9692V26.9762C20.033 26.9762 20.0926 26.9762 20.1522 26.9712C20.2118 26.9662 20.2713 26.9762 20.3309 26.9762V26.9672C30.8099 26.7824 40.3033 18.5541 40.3033 14.0178C40.3033 9.28781 30.8109 1.25119 20.3309 1.0685" fill="#7D00FF"/>
<path d="M20.1521 22.1837C21.7241 22.1837 23.2609 21.7203 24.568 20.8521C25.8751 19.9839 26.8938 18.75 27.4954 17.3062C28.097 15.8625 28.2544 14.2738 27.9477 12.7412C27.6411 11.2085 26.8841 9.80067 25.7725 8.69568C24.6609 7.59069 23.2446 6.83819 21.7028 6.53332C20.1609 6.22846 18.5628 6.38492 17.1104 6.98294C15.658 7.58095 14.4167 8.59366 13.5433 9.89299C12.6699 11.1923 12.2037 12.7199 12.2037 14.2826C12.2037 16.3781 13.0412 18.3878 14.5318 19.8695C16.0224 21.3513 18.0441 22.1837 20.1521 22.1837Z" fill="white"/>
<path d="M21.7223 15.8335C21.9312 15.6361 22.0972 15.3982 22.2101 15.1346C22.323 14.871 22.3804 14.5872 22.3787 14.3007C22.3861 14.0078 22.3329 13.7165 22.2224 13.4449C22.1119 13.1733 21.9465 12.9271 21.7365 12.7216C21.5347 12.5153 21.2925 12.3522 21.0248 12.2424C20.7572 12.1326 20.4698 12.0784 20.1803 12.0832C19.8868 12.0798 19.5956 12.1345 19.3235 12.2441C19.0515 12.3537 18.8042 12.516 18.5959 12.7216C18.3831 12.9218 18.2136 13.1631 18.0977 13.4306C17.9819 13.6981 17.9221 13.9863 17.9221 14.2776C17.9221 14.5688 17.9819 14.857 18.0977 15.1245C18.2136 15.3921 18.3831 15.6333 18.5959 15.8335C18.802 16.043 19.0486 16.2089 19.3209 16.3212C19.5932 16.4335 19.8855 16.4899 20.1803 16.487C20.4686 16.4885 20.7541 16.4312 21.0193 16.3189C21.2845 16.2065 21.5238 16.0413 21.7223 15.8335Z" fill="#1C1C1C"/>
<path d="M21.8508 16.1346C22.1038 15.8958 22.3049 15.608 22.4417 15.2889C22.5786 14.9699 22.6483 14.6264 22.6465 14.2796C22.6547 13.9256 22.5899 13.5738 22.4559 13.2458C22.322 12.9177 22.1219 12.6205 21.8679 12.3723C21.6238 12.1225 21.3307 11.925 21.0068 11.792C20.6829 11.6591 20.335 11.5935 19.9846 11.5994C19.6292 11.5955 19.2767 11.6619 18.9473 11.7945C18.6179 11.9272 18.3183 12.1236 18.0659 12.3723C17.8094 12.6148 17.6051 12.9066 17.4656 13.23C17.326 13.5534 17.254 13.9016 17.254 14.2535C17.254 14.6054 17.326 14.9536 17.4656 15.277C17.6051 15.6003 17.8094 15.8921 18.0659 16.1346C18.3158 16.3879 18.6145 16.5884 18.9442 16.7242C19.2739 16.8599 19.6278 16.9281 19.9846 16.9246C20.3334 16.9266 20.679 16.8575 20.9999 16.7216C21.3209 16.5857 21.6105 16.386 21.8508 16.1346Z" fill="#1C1C1C"/>
<path d="M21.8244 12.4255C21.5727 12.1678 21.2705 11.9642 20.9365 11.8271C20.6025 11.69 20.2438 11.6224 19.8825 11.6285C19.5163 11.6244 19.1528 11.6928 18.8134 11.8296C18.4739 11.9665 18.1653 12.169 17.9053 12.4255C17.6408 12.6755 17.4302 12.9763 17.2863 13.3097C17.1424 13.6431 17.0682 14.0021 17.0682 14.3649C17.0682 14.7277 17.1424 15.0867 17.2863 15.4201C17.4302 15.7535 17.6408 16.0543 17.9053 16.3043C18.1626 16.5655 18.4704 16.7724 18.8102 16.9123C19.15 17.0522 19.5148 17.1223 19.8825 17.1184C20.6058 17.1045 21.2956 16.8127 21.8072 16.3042C22.3187 15.7957 22.6123 15.11 22.6262 14.391C22.6349 14.0263 22.5682 13.6637 22.4303 13.3256C22.2924 12.9876 22.0862 12.6812 21.8244 12.4255Z" fill="black"/>
<path d="M58.6882 12.3121V8.73447H53.4371V3.05183H51.7032V3.0177H49.528V3.05183H49.3089V5.26024C49.2665 5.62162 49.2231 5.984 49.1736 6.34437C49.0726 7.1143 48.7949 7.68247 48.3748 8.0328C47.9547 8.38314 47.3145 8.60599 46.4481 8.66822C46.0906 8.69432 45.7331 8.71641 45.3746 8.73849H44.488V8.7927H44.4567V9.14805H44.488V12.3121H48.8757V21.6286C48.8757 25.0771 50.7287 26.801 54.4348 26.8003C55.4916 26.787 56.5437 26.6564 57.5713 26.4108V22.9747C57.0025 23.1333 56.4151 23.2167 55.8243 23.2227C55.1599 23.2227 54.6374 23.0985 54.2571 22.8502C53.8767 22.602 53.6458 22.3376 53.5643 22.0572C53.4741 21.7225 53.4319 21.3768 53.4391 21.0303V12.3121H58.6882Z" fill="#7D00FF"/>
<path d="M74.0873 18.3341C74.0873 19.8217 73.7012 20.9494 72.929 21.717C72.1568 22.4845 71.1887 22.8683 70.0247 22.8683C68.8836 22.8683 67.9569 22.4963 67.2447 21.7521C66.5324 21.0079 66.1763 19.9385 66.1763 18.5439V8.7345H61.6149V19.4674C61.6149 21.7581 62.2383 23.5529 63.4851 24.8519C64.7319 26.1508 66.426 26.8003 68.5675 26.8003C70.7999 26.8003 72.5459 25.9855 73.8055 24.356H74.0913L74.4831 26.446H78.6517V8.7345H74.0873V18.3341Z" fill="#7D00FF"/>
<path d="M108.278 1.77394C108.026 1.51624 107.724 1.31257 107.39 1.17549C107.055 1.03841 106.697 0.970828 106.335 0.976909C105.969 0.97293 105.605 1.04134 105.266 1.17816C104.926 1.31498 104.617 1.5175 104.357 1.77394C104.086 2.02453 103.871 2.32928 103.727 2.66819C103.582 3.0071 103.512 3.37251 103.52 3.74044C103.519 4.09861 103.593 4.45304 103.737 4.78132C103.881 5.10961 104.092 5.40462 104.357 5.6477C104.614 5.91016 104.922 6.11815 105.262 6.25911C105.602 6.40006 105.967 6.47106 106.335 6.46783C106.694 6.46952 107.049 6.39807 107.379 6.25787C107.709 6.11768 108.007 5.91172 108.254 5.65272C108.514 5.4071 108.721 5.11123 108.862 4.78325C109.003 4.45528 109.075 4.10212 109.074 3.74546C109.084 3.38022 109.018 3.01682 108.882 2.67772C108.745 2.33862 108.539 2.03103 108.278 1.77394Z" fill="#7D00FF"/>
<path d="M92.3673 8.38007C90.1335 8.38007 88.4111 9.0533 87.2 10.3998V1.29608H82.6385V26.4459H86.3406L86.7324 24.3559H87.0535C88.2889 25.9855 90.0588 26.8002 92.3632 26.8002C94.7868 26.8002 96.7883 25.95 98.3677 24.2495C99.9471 22.549 100.737 20.3175 100.738 17.555C100.738 14.7443 99.9417 12.5125 98.3495 10.8595C96.7573 9.20655 94.7633 8.38007 92.3673 8.38007ZM94.9333 21.3977C94.1012 22.3781 93.0082 22.8683 91.6543 22.8683C90.3005 22.8683 89.2196 22.3841 88.4118 21.4157C87.6039 20.448 87.2 19.1611 87.2 17.555C87.2 15.9964 87.6039 14.7329 88.4118 13.7646C89.2196 12.7962 90.3005 12.312 91.6543 12.312C93.0082 12.312 94.1012 12.7962 94.9333 13.7646C95.7654 14.7329 96.1811 15.9964 96.1804 17.555C96.1804 19.137 95.7647 20.4179 94.9333 21.3977Z" fill="#7D00FF"/>
<path d="M106.404 9.34177H106.309H106.214C105.488 9.32712 104.765 9.24444 104.055 9.09483V26.4459H108.616V9.07977C107.889 9.23791 107.148 9.32565 106.404 9.34177Z" fill="#7D00FF"/>
<path d="M145.623 17.9094C144.708 17.0595 143.395 16.4218 141.684 15.9961L140.01 15.5715C138.941 15.2878 138.187 15.0221 137.747 14.7745C137.307 14.5269 137.087 14.1193 137.087 13.5518C137.087 12.9857 137.301 12.543 137.729 12.2238C138.156 11.9046 138.726 11.7453 139.439 11.7459C141.15 11.7459 142.1 12.4306 142.29 13.7998H146.673C146.53 12.2177 145.853 10.9191 144.642 9.90393C143.431 8.88873 141.685 8.3808 139.404 8.38013C137.527 8.38013 135.947 8.85862 134.664 9.8156C133.381 10.7726 132.741 12.1006 132.745 13.7998C132.745 14.6269 132.888 15.3413 133.172 15.9429C133.446 16.5318 133.877 17.0343 134.42 17.3955C134.916 17.7352 135.448 18.0203 136.006 18.2457C136.604 18.4727 137.217 18.6562 137.842 18.7948L139.516 19.2194C140.585 19.5038 141.375 19.817 141.886 20.159C142.397 20.501 142.653 20.9908 142.653 21.6286C142.653 22.2429 142.409 22.6977 141.922 22.9928C141.434 23.2879 140.811 23.4355 140.051 23.4355C137.96 23.4355 136.796 22.5498 136.559 20.7784H132.176C132.295 22.6441 133.031 24.1141 134.385 25.1882C135.739 26.2622 137.64 26.7996 140.087 26.8003C142.106 26.8003 143.764 26.3576 145.058 25.4722C146.353 24.5869 147 23.2702 147 21.5222C146.997 19.9636 146.538 18.7593 145.623 17.9094Z" fill="#7D00FF"/>
<path d="M121.196 22.8683C119.746 22.8683 118.588 22.3902 117.721 21.4339C116.854 20.4775 116.42 19.2201 116.42 17.6615C116.42 16.1029 116.866 14.8217 117.757 13.8178C118.649 12.814 119.771 12.3121 121.124 12.3121C122.169 12.3121 123.054 12.5838 123.779 13.1272C124.481 13.6374 124.979 14.3775 125.187 15.2172H129.748C129.489 13.0181 128.538 11.3297 126.897 10.1519C125.256 8.97406 123.331 8.38347 121.124 8.38013C118.487 8.38013 116.284 9.24208 114.514 10.966C112.744 12.6899 111.859 14.9217 111.859 17.6615C111.859 20.3537 112.72 22.5498 114.443 24.2496C116.166 25.9494 118.417 26.7996 121.196 26.8003C123.524 26.8003 125.466 26.2157 127.021 25.0466C128.577 23.8775 129.51 22.3012 129.82 20.3176H125.219C124.627 22.0181 123.286 22.8683 121.196 22.8683Z" fill="#7D00FF"/>
</svg>
