<svg width="241" height="211" viewBox="0 0 241 211" fill="none" xmlns="http://www.w3.org/2000/svg">
<g clip-path="url(#clip0_140_13003)">
<path d="M58.6023 73.4446C57.7397 92.1389 36.6627 111.77 25.6797 120.068C26.2064 120.345 26.72 120.642 27.227 120.965C29.6592 122.523 31.7503 124.559 33.3734 126.95C34.9965 129.342 36.1178 132.039 36.6692 134.877C46.8357 127.159 75.6825 102.845 77.0323 74.3484C77.6974 59.3679 71.0207 45.8716 57.1273 34.3344L45.3608 48.5563C54.6516 56.2873 58.9908 64.4273 58.6023 73.4446Z" fill="#7438FF"/>
<path d="M88.2325 184.08C87.3699 187.068 85.9279 189.806 84.1435 191.415C82.7608 193.849 75.4388 195.822 67.781 195.822H60.1956C59.8684 195.824 59.5451 195.892 59.2443 196.021C58.9436 196.15 58.6716 196.338 58.4441 196.574C57.9758 197.045 57.7129 197.683 57.7133 198.348V208.513C57.7136 208.841 57.7785 209.166 57.9042 209.47C58.0291 209.775 58.2126 210.053 58.4441 210.288C58.6737 210.519 58.9465 210.703 59.2471 210.828C59.5476 210.954 59.87 211.019 60.1956 211.02H112.872C113.533 211.015 114.165 210.748 114.631 210.279C115.097 209.81 115.359 209.175 115.361 208.513L115.427 185.485C113.194 187.306 109.296 188.493 103.693 188.493C96.7726 188.493 90.8268 186.686 88.2523 184.1" fill="black"/>
<path d="M183.767 208.493V198.328C183.766 197.998 183.702 197.671 183.576 197.365C183.453 197.07 183.274 196.801 183.05 196.574C182.82 196.342 182.547 196.158 182.247 196.033C181.946 195.907 181.624 195.842 181.298 195.841H173.686C166.035 195.841 158.707 193.862 157.331 191.435C155.546 189.825 154.104 187.088 153.242 184.1C150.647 186.686 144.682 188.493 137.794 188.493C132.178 188.493 128.293 187.306 126.061 185.485L126.127 208.513C126.128 209.175 126.391 209.81 126.857 210.279C127.323 210.748 127.955 211.015 128.615 211.02H181.292C181.617 211.019 181.94 210.954 182.24 210.829C182.541 210.703 182.814 210.519 183.043 210.288C183.275 210.053 183.458 209.775 183.583 209.47C183.709 209.166 183.774 208.841 183.774 208.513" fill="black"/>
<path d="M218.929 64.025C218.929 40.667 172.672 0.936693 121.61 0.0395786V0C121.32 0 121.03 0 120.74 0C120.451 0 120.161 0 119.871 0V0.0395786C68.8083 0.936693 22.552 40.6472 22.552 64.025C22.552 81.7628 51.5634 110.932 88.9898 122.766V178.328C91.8672 180.571 97.3521 182.094 103.693 182.094C109.31 182.094 113.194 180.907 115.42 179.093V127.812C116.902 127.905 118.383 127.977 119.865 128.004V128.043H120.734C121.023 128.043 121.32 128.043 121.61 128.043V128.004C123.098 128.004 124.573 127.905 126.047 127.812V179.093C128.28 180.914 132.178 182.101 137.781 182.101C144.122 182.101 149.633 180.571 152.484 178.328V122.773C189.917 110.932 218.929 81.743 218.929 64.025Z" fill="#7438FF"/>
<path d="M120.74 104.369C128.418 104.359 135.92 102.063 142.291 97.7708C148.662 93.4787 153.616 87.3853 156.521 80.2653C159.458 73.1339 160.23 65.2933 158.741 57.7243C157.253 50.1553 153.569 43.1941 148.152 37.7118C144.11 33.6355 139.213 30.5127 133.816 28.5706C128.419 26.6285 122.657 25.9158 116.951 26.4844C111.244 27.053 105.736 28.8886 100.826 31.8576C95.9164 34.8267 91.729 38.8547 88.5684 43.6486C83.5907 51.1682 81.3517 60.1765 82.2284 69.1564C83.1051 78.1364 87.044 86.5394 93.3817 92.9503C96.9662 96.5652 101.229 99.4349 105.924 101.394C110.619 103.354 115.654 104.365 120.74 104.369Z" fill="white"/>
<path d="M119.838 76.2481C122.409 76.2471 124.922 75.4802 127.057 74.0448C129.192 72.6095 130.853 70.5706 131.829 68.1873C132.815 65.8012 133.079 63.1767 132.586 60.6416C132.093 58.1065 130.865 55.773 129.057 53.9324C127.538 52.4326 125.675 51.3296 123.632 50.7205C121.588 50.1114 119.426 50.0148 117.336 50.4392C115.246 50.8637 113.293 51.7961 111.647 53.1546C110.002 54.5131 108.715 56.2559 107.899 58.2297C107.084 60.2035 106.765 62.3478 106.971 64.4739C107.177 66.6 107.902 68.6429 109.081 70.4226C110.261 72.2023 111.858 73.6644 113.734 74.6802C115.61 75.6961 117.706 76.2345 119.838 76.2481Z" fill="black"/>
<path d="M119.766 62.0064C121.402 62.0064 122.729 60.6774 122.729 59.038C122.729 57.3986 121.402 56.0696 119.766 56.0696C118.129 56.0696 116.803 57.3986 116.803 59.038C116.803 60.6774 118.129 62.0064 119.766 62.0064Z" fill="white"/>
<path d="M22.7626 124.527C16.1781 120.959 8.84954 122.667 7.37461 125.187C4.47084 130.194 8.88247 131.427 7.51947 135.036C5.87993 139.409 0.539881 139.844 0.0921338 143.802C-0.856037 152.378 5.51778 157.186 11.7928 158.097C14.1204 158.364 16.4783 158.13 18.7078 157.408C20.9373 156.687 22.9867 155.496 24.7182 153.915C32.4946 146.942 34.8123 137.206 28.7348 129.415C27.0644 127.429 25.0391 125.771 22.7626 124.527Z" fill="black"/>
<path d="M182.391 73.4446C183.254 92.1389 204.337 111.77 215.314 120.068C214.794 120.345 214.273 120.642 213.766 120.965C211.335 122.524 209.244 124.56 207.621 126.951C205.998 129.343 204.877 132.039 204.324 134.877C194.158 127.159 165.311 102.845 163.968 74.3484C163.296 59.3679 169.979 45.8716 183.873 34.3344L195.639 48.5563C186.342 56.2873 182.003 64.4273 182.391 73.4446Z" fill="#7438FF"/>
<path d="M218.231 124.527C224.848 120.959 232.15 122.667 233.619 125.187C236.522 130.194 232.117 131.427 233.474 135.036C235.12 139.389 240.46 139.818 240.901 143.809C241.856 152.384 235.476 157.193 229.207 158.103C226.878 158.372 224.519 158.137 222.289 157.416C220.058 156.694 218.008 155.503 216.275 153.921C208.505 146.949 206.188 137.212 212.265 129.422C213.934 127.435 215.957 125.775 218.231 124.527Z" fill="black"/>
<path d="M161.755 44.3412C161.755 57.5737 142.805 32.0983 119.996 32.0983C97.1875 32.0983 79.1722 57.5737 79.1722 44.3412C79.1722 31.1088 97.2072 3.35101 119.996 3.35101C142.785 3.35101 161.755 31.1154 161.755 44.3412Z" fill="#7438FF"/>
<mask id="mask0_140_13003" style="mask-type:alpha" maskUnits="userSpaceOnUse" x="82" y="26" width="78" height="79">
<path d="M120.74 104.369C128.418 104.36 135.92 102.063 142.291 97.7708C148.662 93.4787 153.616 87.3853 156.52 80.2653C159.457 73.134 160.23 65.2933 158.741 57.7243C157.253 50.1553 153.569 43.1941 148.152 37.7118C144.11 33.6355 139.213 30.5127 133.816 28.5706C128.419 26.6285 122.657 25.9158 116.951 26.4844C111.244 27.053 105.735 28.8886 100.826 31.8576C95.9163 34.8267 91.7289 38.8547 88.5682 43.6486C83.5906 51.1682 81.3516 60.1765 82.2283 69.1564C83.105 78.1364 87.0439 86.5394 93.3815 92.9503C96.9661 96.5652 101.228 99.4349 105.924 101.394C110.619 103.354 115.654 104.365 120.74 104.369Z" fill="white"/>
</mask>
<g mask="url(#mask0_140_13003)">
<g opacity="0.47">
<path opacity="0.47" d="M208.966 131.269C208.124 124.125 206.063 115.767 199.919 109.296C197.628 106.888 194.922 104.936 192.834 102.535C190.997 100.424 189.871 98.1944 188.074 96.1165C184.781 92.3169 179.784 89.7509 175.563 86.8023C169.077 82.2574 164.08 76.2019 155.994 73.9987C147.434 71.802 140.356 75.1728 132.25 73.8601C129.096 73.3786 126.278 72.2902 123.144 71.7757C111.015 69.7967 98.4518 76.6438 87.5413 76.9736C84.7231 77.0528 82.2078 76.6438 79.225 77.1781C72.1664 78.4974 66.3655 84.2099 59.8666 87.7852C53.1964 91.499 46.6975 92.0993 39.9813 96.5387C29.2881 103.551 24.2443 118.241 26.4567 125.095C43.4448 116.025 60.4262 113.406 75.1822 115.075C98.8864 101.644 126.443 101.605 148.362 111.862C164.271 112.317 181.812 118.083 197.239 131.651C201.138 131.294 205.053 131.167 208.966 131.269Z" fill="#29ABE2"/>
</g>
</g>
</g>
<defs>
<clipPath id="clip0_140_13003">
<rect width="241" height="211" fill="white"/>
</clipPath>
</defs>
</svg>
